<svg xmlns="http://www.w3.org/2000/svg" viewBox="0 0 464.72 385.91">
	<path d="M92.17 159.24c1.23.97 2.65 1.71 4.28 2.21 1.62.51 3.21.75 4.75.74.96.02 2.08-.13 3.36-.46 1.28-.33 2.11-1.09 2.5-2.28.16-.49.29-1.03.39-1.62.1-.58.23-1.12.39-1.62a90.63 90.63 0 0 0 6.21-9.91c1.86-3.46 3.79-6.8 5.77-10.02 2.4-4.02 4.81-8 7.21-11.93 2.41-3.93 4.86-7.86 7.37-11.8 5.02-7.68 10.28-15.14 15.76-22.38 5.49-7.23 11.41-14.16 17.76-20.79 3.48-3.72 7.12-7.31 10.91-10.76.44-.51.94-.98 1.49-1.41.55-.42 1.09-.9 1.63-1.42-.16.49-.36.99-.61 1.49s-.46 1-.61 1.49c-.99 2.29-2.1 4.49-3.34 6.6-1.24 2.11-2.46 4.27-3.64 6.47A530.957 530.957 0 0 0 158.19 102c-9.71 19.96-18.5 40.58-26.38 61.85-.41.99-.34 1.92.2 2.8.54.87 1.25 1.66 2.12 2.37.87.71 1.83 1.29 2.87 1.74 1.04.45 1.91.8 2.6 1.04.69.24 1.6.46 2.72.67 1.12.21 2.21.27 3.26.2 1.05-.08 2.05-.32 2.98-.72.93-.41 1.6-1.11 2.01-2.1.25-.6.49-1.19.74-1.79.25-.59.44-1.19.59-1.78 5.27-8.18 10.63-16.22 16.07-24.13 5.44-7.9 11.2-15.69 17.28-23.35 3.09-3.79 6.19-7.55 9.28-11.29 3.09-3.74 6.24-7.46 9.44-11.16l3.99-4.62a172.5 172.5 0 0 1 4.14-4.63c-.85 2.86-1.8 5.67-2.85 8.44-1.61 4.35-3.17 8.68-4.68 12.98-1.52 4.3-2.93 8.66-4.24 13.09s-2.5 8.9-3.57 13.4a76.376 76.376 0 0 0-1.96 13.72c-.18 2.8.28 5.2 1.39 7.19 1.11 1.99 2.82 3.76 5.15 5.33 2.33 1.56 4.95 2.57 7.87 3.03.05 0 .18-.01.43-.03.38-.03.81-.06 1.29-.09s.86-.04 1.15-.01c.2.02.26.04.18.05.51-.04 1.01-.1 1.47-.17.52-.09 1.06-.29 1.62-.62 1.11-.66 1.47-1.33 1.08-2.03-.39-.69-1.04-1.35-1.95-1.95l-.03-.43-.48-2.56c-.16-.86-.22-1.72-.19-2.59-.05-1.92.13-3.81.53-5.67.39-1.86.76-3.72 1.11-5.57.86-4.11 1.83-8.15 2.94-12.13 1.1-3.98 2.33-7.94 3.68-11.89 1.26-3.85 2.59-7.65 4-11.41 1.41-3.76 2.75-7.51 4.01-11.27.62-2.07 1.12-4.17 1.49-6.32.37-2.14.48-4.27.33-6.38-.15-2.1-.57-4.15-1.24-6.12-.67-1.97-1.75-3.82-3.22-5.54-.62-.63-1.51-1.26-2.67-1.9-1.15-.64-2.39-1.12-3.72-1.46-1.32-.34-2.63-.46-3.92-.36-1.29.09-2.29.6-2.99 1.52-.45.52-.72.99-.83 1.43-.11.44-.34.92-.69 1.42-.25.5-.61.96-1.05 1.38-.45.42-.9.88-1.34 1.4-.71.82-1.45 1.65-2.2 2.47-.76.83-1.49 1.65-2.2 2.47-1.59 1.95-3.18 3.89-4.77 5.83-1.59 1.95-3.18 3.89-4.77 5.83-3.09 3.79-6.16 7.6-9.2 11.43-3.04 3.83-6.05 7.73-9.04 11.7a228.63 228.63 0 0 0-4.87 6.49c-1.57 2.19-3.14 4.44-4.7 6.77l3.5-5.45c1.73-2.63 3.5-5.19 5.29-7.68 1.79-2.49 3.6-5.05 5.43-7.69 3.67-5.08 7.4-10.07 11.18-14.97 3.78-4.9 7.61-9.84 11.48-14.84.09 0 .12-.03.07-.08a.36.36 0 0 0-.22-.06 319.15 319.15 0 0 0-12.3 14.47c-3.92 4.91-7.77 9.95-11.53 15.14-1.83 2.54-3.65 5.08-5.44 7.62-1.79 2.54-3.55 5.12-5.28 7.75l-.53.62c1.16-2.59 2.36-5.2 3.61-7.84 1.25-2.64 2.5-5.26 3.76-7.85 2.52-5.09 5.04-10.14 7.56-15.13 2.52-5 5.14-10 7.86-15.01 1.1-2.1 2.27-4.45 3.53-7.04 1.25-2.59 2.22-5.24 2.88-7.94.67-2.7.93-5.36.79-8-.14-2.64-1.02-5.1-2.63-7.39-.97-1.37-2.49-2.44-4.57-3.2-2.08-.76-3.95-.74-5.63.05-.75.34-1.31.79-1.71 1.35-.39.56-.96 1.11-1.69 1.64-1.01.65-1.92 1.37-2.73 2.15-.81.78-1.67 1.59-2.57 2.43-1.71 1.57-3.4 3.16-5.07 4.77-1.66 1.62-3.3 3.3-4.9 5.05-3.41 3.43-6.64 6.96-9.69 10.6-3.05 3.64-6.03 7.35-8.93 11.12a459.59 459.59 0 0 0-16.5 23.22c-5.2 7.84-10.25 15.84-15.14 23.99-.08.2-.17.37-.25.52-.09.15-.17.33-.25.52.91-1.99 1.85-3.91 2.83-5.77.97-1.85 1.97-3.73 2.98-5.63 2.29-4.21 4.66-8.3 7.12-12.29 2.45-3.98 4.98-7.94 7.58-11.89 5.22-7.6 10.67-14.98 16.36-22.13 5.69-7.15 11.7-14.04 18.05-20.67 0-.09-.04-.16-.09-.21-.05-.04-.07-.02-.07.08a315.166 315.166 0 0 0-19.14 20.67c-6.03 7.13-11.73 14.65-17.12 22.55a359.66 359.66 0 0 0-7.33 11.36c-2.37 3.83-4.66 7.75-6.87 11.76-1.02 1.9-2.06 3.83-3.12 5.79s-2.09 3.93-3.1 5.93c1.21-3.26 2.43-6.53 3.69-9.8 1.25-3.27 2.58-6.49 3.99-9.68 1.63-3.97 3.22-7.93 4.76-11.9 1.54-3.96 3.03-7.97 4.46-12.02.71-2.07 1.49-4.25 2.34-6.52.84-2.27 1.47-4.53 1.89-6.78.41-2.24.51-4.49.3-6.74-.21-2.25-.93-4.43-2.14-6.56-.22-.37-.73-.79-1.54-1.26s-1.65-.87-2.54-1.19c-.89-.32-1.77-.47-2.63-.46-.87.02-1.47.32-1.81.93-.27.21-.53.38-.76.49-.23.11-.49.28-.76.49-.47.23-.91.38-1.34.46-.43.08-.74.13-.93.14-.85.26-1.57.6-2.16 1.02-.6.43-1.3.91-2.13 1.46-.47.23-.4.46.2.71s.98.31 1.17.2c.75-.25 1.37-.39 1.85-.42-2.02 2.65-3.58 5.7-4.67 9.15-1.1 3.45-2.21 6.71-3.33 9.77-1.62 4.16-3.27 8.3-4.94 12.42-1.67 4.12-3.37 8.26-5.08 12.43-.72 1.98-1.47 3.89-2.25 5.72-.78 1.84-1.53 3.75-2.25 5.72.47-1.48.94-2.96 1.41-4.43.47-1.48.94-2.91 1.42-4.29 2.11-6.7 4.37-13.31 6.78-19.84 2.41-6.53 4.77-13.1 7.08-19.72-.02-.29-.12-.33-.3-.12-2.91 6.28-5.59 12.71-8.05 19.28-2.46 6.58-4.84 13.18-7.15 19.8-2.22 6.51-4.37 13.05-6.44 19.6-2.07 6.55-3.88 13.16-5.41 19.81-.07.39 0 .67.21.85-.06.49-.13.9-.2 1.24-.07.34-.14.71-.21 1.1-.35 1.85-.17 3.33.54 4.44.71 1.1 1.77 2.23 3.21 3.38Z" />
	<path class="cls-1" d="M212.25 164.18c-.06 0-.11.02-.17.02.09 0 .14-.01.17-.02ZM209.2 164.27c-.03 0-.03 0 0 0ZM238.83 135.97c1.54.86 3.19 1.56 4.97 2.09 1.78.53 3.58.7 5.4.5.58-.19.96-.29 1.15-.29 1.15.38 2.02.29 2.59-.29a78.09 78.09 0 0 0 5.47-5.11 78.09 78.09 0 0 1 5.47-5.11c1.73-1.63 3.48-3.24 5.26-4.82 1.78-1.58 3.58-3.19 5.4-4.82 1.92-1.63 3.77-3.29 5.54-4.97.38-.36.75-.73 1.13-1.1.4 1.43.85 2.83 1.39 4.19.77 1.73 1.66 3.38 2.66 4.97 1.01 1.58 2.09 3.1 3.24 4.54 0 .1.09.24.29.43.77 1.63 1.56 3.24 2.38 4.82a63.53 63.53 0 0 1 2.23 4.82c.77 1.92 1.2 3.74 1.3 5.47.09 1.73.05 3.55-.14 5.47-2.02-.77-3.74-1.68-5.18-2.74-.77-.48-1.75-1.2-2.95-2.16-1.2-.96-2.33-2.04-3.38-3.24-1.06-1.2-1.82-2.42-2.3-3.67-.48-1.25-.29-2.4.58-3.46.48-.58.5-1.17.07-1.8-.43-.62-1.03-1.15-1.8-1.58-.77-.43-1.58-.67-2.45-.72-.86-.05-1.53.12-2.02.5-1.73 1.54-2.52 3.22-2.38 5.04.14 1.82.74 3.6 1.8 5.33s2.38 3.33 3.96 4.82c1.58 1.49 3 2.66 4.25 3.53 3.84 2.69 7.87 4.66 12.1 5.9 1.06.29 2.21.53 3.46.72 1.25.19 2.45.19 3.6 0 .58.19 1.25.36 2.02.5s1.53.19 2.3.14a6.05 6.05 0 0 0 2.09-.5c.62-.29 1.08-.77 1.37-1.44.67-1.92.94-3.87.79-5.83-.14-1.97-.55-3.91-1.22-5.83-.67-1.92-1.51-3.79-2.52-5.62-1.01-1.82-1.99-3.5-2.95-5.04-1.06-1.63-2.09-3.31-3.1-5.04s-1.94-3.55-2.81-5.47c-.67-1.53-1.2-3.1-1.58-4.68-.38-1.58-.82-3.19-1.3-4.82.09-.19.17-.43.22-.72.05-.29.12-.53.22-.72.77-2.21 1.8-4.27 3.1-6.19a68.97 68.97 0 0 1 4.1-5.47c2.78-3.36 5.69-6.57 8.71-9.65 3.02-3.07 6.65-5.28 10.87-6.62.09 0 .14-.02.14-.07s-.05-.07-.14-.07c-2.3.29-4.46.96-6.48 2.02a29.882 29.882 0 0 0-5.69 3.89 53.704 53.704 0 0 0-5.04 4.97c-1.58 1.78-3.1 3.53-4.54 5.26 2.5-4.13 5.52-7.82 9.07-11.09 1.05-1.06 2.21-2.04 3.46-2.95 1.25-.91 2.54-1.8 3.89-2.66 1.44-.86 2.93-1.63 4.46-2.3 1.53-.67 3.02-1.49 4.46-2.45.86-.58 1.27-1.25 1.22-2.02-.05-.77-.31-1.53-.79-2.3-.48-.77-1.06-1.46-1.73-2.09-.67-.62-1.2-1.08-1.58-1.37-1.82-1.34-3.77-2.23-5.83-2.66-2.07-.43-4.15-.41-6.26.07-1.92.48-3.79 1.22-5.62 2.23a86.477 86.477 0 0 0-5.18 3.1c-1.44.96-2.86 1.97-4.25 3.02a39.236 39.236 0 0 0-3.96 3.46c-2.59 2.5-4.92 5.31-6.98 8.42a31.332 31.332 0 0 0-4.39 10.01c-.77 3.55-.94 7.2-.5 10.94.04.31.09.6.13.9a907.79 907.79 0 0 0-5.39 4.35c-1.83 1.49-3.65 3.05-5.47 4.68-3.65 3.07-7.15 6.15-10.51 9.22l-2.59 2.16c.77-1.34 1.46-2.71 2.09-4.1.62-1.39 1.27-2.76 1.94-4.1.96-1.92 1.92-3.86 2.88-5.83.96-1.97 1.92-3.91 2.88-5.83.77-1.63 1.56-3.31 2.38-5.04.81-1.73 1.56-3.48 2.23-5.26.67-1.77 1.17-3.58 1.51-5.4.33-1.82.41-3.69.22-5.62h-.14c-.38 4.32-1.49 8.3-3.31 11.95-1.82 3.65-3.65 7.34-5.47 11.09-.67 1.15-1.3 2.33-1.87 3.53-.58 1.2-1.2 2.43-1.87 3.67.96-2.4 1.92-4.77 2.88-7.13.96-2.35 1.97-4.73 3.02-7.13.58-1.44 1.22-2.9 1.94-4.39.72-1.49 1.25-2.95 1.58-4.39.33-1.44.43-2.88.29-4.32-.14-1.44-.79-2.93-1.94-4.46-.58-.67-1.56-1.49-2.95-2.45a23.36 23.36 0 0 0-4.39-2.38c-1.54-.62-2.98-.86-4.32-.72-1.35.14-2.21.94-2.59 2.38-.19.38-.19.72 0 1.01-.19.29-.34.6-.43.94-.1.34-.24.65-.43.94l-3.02 6.05c-.96 2.02-1.9 4.06-2.81 6.12-.91 2.07-1.85 4.15-2.81 6.26-1.73 4.32-3.41 8.64-5.04 12.96a210.36 210.36 0 0 0-4.46 13.1c-.48 1.63-.09 3.12 1.15 4.46 1.25 1.35 2.45 2.4 3.6 3.17Zm16.7-51.98c-.1 0-.17-.02-.22-.07-.05-.05.02-.02.22.07Z" />
	<path d="M265.18 73.76c2.11.86 4.22 1.27 6.34 1.22 2.11-.05 3.5-.89 4.18-2.52.77-1.92 1.54-3.86 2.3-5.83a67.79 67.79 0 0 0 2.02-5.98c.48-2.02.67-3.94.58-5.76-.1-1.82-.96-3.46-2.59-4.9-1.15-1.44-2.64-2.5-4.46-3.17-.48-.19-1.25-.38-2.3-.58-1.06-.19-1.82 0-2.3.58-.29.38-.53.86-.72 1.44-1.06.77-1.97 1.85-2.74 3.24-.77 1.39-1.44 2.62-2.02 3.67-.96 1.63-1.8 3.34-2.52 5.11-.72 1.78-1.46 3.53-2.23 5.26-.67 1.54-.29 3.07 1.15 4.61 1.44 1.54 3.21 2.74 5.33 3.6ZM321.05 110.19a46.072 46.072 0 0 0-3.02 10.8c-.19 1.15-.36 2.28-.5 3.38s-.17 2.19-.07 3.24c.1 1.54.31 2.81.65 3.82.34 1.01.94 2.14 1.8 3.38.48.67 1.15 1.3 2.02 1.87.86.86 1.92 1.56 3.17 2.09 1.25.53 2.4.94 3.46 1.22 1.73.38 3.46.48 5.18.29 1.73-.19 3.46-.53 5.18-1.01a48.96 48.96 0 0 0 9.65-3.89c3.07-1.63 6-3.46 8.78-5.47 3.07-2.11 6-4.32 8.78-6.62 2.78-2.3 5.62-4.56 8.5-6.77 2.78-2.21 5.64-4.32 8.57-6.34 2.93-2.02 5.88-3.98 8.86-5.9.38-.19.26-.43-.36-.72-.63-.29-1.03-.43-1.22-.43a43.97 43.97 0 0 0-9 3.53 87.634 87.634 0 0 0-8.28 4.97c-2.69 1.82-5.33 3.7-7.92 5.62s-5.23 3.79-7.92 5.62a105.05 105.05 0 0 1-8.14 4.9 61.323 61.323 0 0 1-8.71 3.89c-.77.29-1.54.55-2.3.79-.77.24-1.54.46-2.3.65v-3.6c0-.86.09-1.73.29-2.59.19-1.63.53-3.24 1.01-4.82s1.01-3.19 1.58-4.82c.09-.38.19-.72.29-1.01.09-.29.24-.62.43-1.01 2.88.58 5.78.63 8.71.14a30.82 30.82 0 0 0 8.42-2.66c2.69-1.3 5.21-2.9 7.56-4.82 2.35-1.92 4.34-4.03 5.98-6.34 3.36-4.7 5.47-10.13 6.34-16.27.19-1.63.19-3.46 0-5.47-.19-2.02-.96-3.5-2.3-4.46-.29-.38-.65-.72-1.08-1.01-.43-.29-.84-.53-1.22-.72-1.83-.86-3.77-1.39-5.83-1.58-2.07-.19-4.1-.14-6.12.14s-4.01.79-5.98 1.51a38.4 38.4 0 0 0-5.54 2.52 54.129 54.129 0 0 0-8.86 6.7 74.389 74.389 0 0 0-7.56 8.14c-2.21 2.98-4.25 6.05-6.12 9.22s-3.48 6.48-4.82 9.94Zm24.12-6.91c.62-1.15 1.32-2.25 2.09-3.31 1.63-2.5 3.48-4.94 5.54-7.34 2.06-2.4 4.25-4.56 6.55-6.48 1.06-.96 2.16-1.89 3.31-2.81 1.15-.91 2.4-1.75 3.74-2.52.48-.29 1.03-.55 1.66-.79.62-.24 1.22-.45 1.8-.65-.19.58-.29.91-.29 1.01-.38 1.06-.72 2.07-1.01 3.02-.29.96-.67 1.97-1.15 3.02-1.92 4.42-4.75 8.35-8.5 11.81-3.65 3.17-7.68 5.62-12.1 7.34-.58.19-1.15.38-1.73.58-.58.19-1.2.38-1.87.58.67-1.15 1.32-2.3 1.94-3.46ZM265.8 228.87c.83.25 1.44.29 1.82.1 3.13-1.09 6.03-2.72 8.69-4.9 2.66-2.17 5.1-4.42 7.34-6.72 1.21-1.28 2.38-2.56 3.5-3.84 1.12-1.28 2.26-2.59 3.41-3.94.64-.77 1.26-1.54 1.87-2.3.61-.77 1.26-1.54 1.97-2.3.58-.7 1.17-1.39 1.78-2.06.61-.67.98-1.46 1.1-2.35.06-.45-.16-.78-.67-1.01-.51-.22-.93-.27-1.25-.14-.9.38-1.68.9-2.35 1.54-.67.64-1.36 1.31-2.06 2.02s-1.41 1.44-2.11 2.21c-.71.77-1.41 1.5-2.11 2.21-1.15 1.15-2.29 2.32-3.41 3.5-1.12 1.18-2.26 2.38-3.41 3.6-1.15 1.09-2.3 2.18-3.46 3.26a41.43 41.43 0 0 1-3.65 3.07l-1.73 1.15.58-2.3c.38-1.28.82-2.51 1.3-3.7.48-1.18.97-2.35 1.49-3.5 1.09-2.43 2.26-4.83 3.5-7.2 1.25-2.37 2.48-4.77 3.7-7.2 1.21-2.3 2.37-4.64 3.46-7.01 1.09-2.37 1.98-4.83 2.69-7.39.38-1.41.54-2.72.48-3.94-.06-1.21-.61-2.43-1.63-3.65-.51-.58-1.15-1.15-1.92-1.73-.77-.58-1.58-1.04-2.45-1.39-.86-.35-1.74-.58-2.64-.67-.9-.1-1.73.05-2.5.43-.32.13-.61.32-.86.58-.26.26-.32.58-.19.96v.48c-4.03 3.65-7.91 7.39-11.62 11.23-3.71 3.84-7.3 7.87-10.75 12.1-1.67 1.98-3.28 4-4.85 6.05-1.57 2.05-3.12 4.13-4.66 6.24 1.09-2.05 2.19-4.08 3.31-6.1 1.12-2.02 2.22-4.05 3.31-6.1.51-1.09 1.06-2.22 1.63-3.41.58-1.18 1.06-2.4 1.44-3.65.38-1.25.62-2.51.72-3.79.1-1.28-.05-2.53-.43-3.74a8.69 8.69 0 0 0-2.45-3.7c-1.12-.99-2.42-1.74-3.89-2.26a11.6 11.6 0 0 0-1.73-.48c-.64-.13-1.25-.13-1.82 0-.58 0-1.02.16-1.34.48-.19.19-.32.35-.38.48 0 .38-.03.45-.1.19-.45.38-.48.77-.1 1.15.38.38.83.71 1.34.96-.13.32-.22.67-.29 1.06-.06.38-.16.74-.29 1.06-.32.9-.67 1.81-1.06 2.74-.38.93-.74 1.84-1.06 2.74a73.88 73.88 0 0 1-2.06 4.51c-.74 1.47-1.49 2.94-2.26 4.42 0-.25.06-.58.19-.96.7-2.24 1.44-4.48 2.21-6.72.77-2.24 1.57-4.48 2.4-6.72 0-.13-.05-.21-.14-.24-.1-.03-.14.02-.14.14-1.34 3.14-2.64 6.3-3.89 9.5s-2.38 6.47-3.41 9.79c-.55 1.02-1.06 2.04-1.58 3.07-1.38.78-2.75 1.6-4.08 2.5a166.86 166.86 0 0 0-5.28 3.74c-1.73 1.28-3.49 2.53-5.28 3.74a70.692 70.692 0 0 1-5.42 3.26 40.567 40.567 0 0 1-5.81 2.59 27.967 27.967 0 0 1-3.08.96v-2.4c0-.58.06-1.15.19-1.73.13-1.09.35-2.16.67-3.22.32-1.06.67-2.13 1.06-3.22.06-.25.13-.48.19-.67.06-.19.16-.42.29-.67 1.92.38 3.85.42 5.81.1 1.95-.32 3.82-.91 5.62-1.78 1.79-.86 3.47-1.94 5.04-3.22 1.57-1.28 2.9-2.69 3.98-4.22 2.24-3.13 3.65-6.75 4.22-10.85.13-1.09.13-2.3 0-3.65-.13-1.34-.64-2.34-1.54-2.98-.19-.26-.43-.48-.72-.67-.29-.19-.56-.35-.82-.48-1.22-.58-2.51-.93-3.89-1.06-1.38-.13-2.74-.1-4.08.1-1.34.19-2.67.53-3.98 1.01s-2.54 1.04-3.7 1.68a36.42 36.42 0 0 0-5.9 4.46c-1.82 1.7-3.5 3.5-5.04 5.42a71.037 71.037 0 0 0-4.08 6.14 45.48 45.48 0 0 0-3.22 6.62c-.96 2.3-1.63 4.7-2.02 7.2-.13.77-.24 1.52-.34 2.26-.1.74-.11 1.46-.05 2.16.06 1.02.21 1.87.43 2.54.23.67.62 1.43 1.2 2.26.32.45.77.86 1.34 1.25.58.58 1.28 1.04 2.11 1.39.83.35 1.6.62 2.3.82 1.15.25 2.3.32 3.46.19 1.15-.13 2.3-.35 3.46-.67 2.24-.64 4.38-1.5 6.43-2.59 2.05-1.09 4-2.3 5.86-3.65 2.05-1.41 4-2.88 5.86-4.42 1.86-1.54 3.74-3.04 5.66-4.51.15-.12.31-.23.46-.35-.03.05-.05.11-.08.16-1.34 2.88-2.3 5.95-2.88 9.22-.13.7-.05 1.36.24 1.97.29.61.67 1.15 1.15 1.63s1.02.91 1.63 1.3c.61.38 1.2.67 1.78.86.38.13 1.04.3 1.97.53.93.22 1.84.34 2.74.34.7.32 1.28.32 1.73 0 2.18-1.66 4.08-3.65 5.71-5.95 1.63-2.3 3.28-4.54 4.94-6.72 1.66-2.17 3.31-4.35 4.94-6.53 1.63-2.17 3.31-4.32 5.04-6.43 2.3-2.82 4.67-5.57 7.1-8.26 2.43-2.69 4.99-5.25 7.68-7.68-.9 2.11-1.86 4.21-2.88 6.29-1.02 2.08-2.08 4.14-3.17 6.19a326.28 326.28 0 0 0-3.17 6.1 90.81 90.81 0 0 0-2.88 6.29c-.9 2.11-1.67 4.22-2.3 6.34-.32 1.28-.66 2.58-1.01 3.89s-.37 2.61-.05 3.89c.32 1.28 1.01 2.3 2.06 3.07 1.06.77 2.16 1.31 3.31 1.63.77.25 1.6.45 2.5.58Zm-56.21-27.17c.42-.77.88-1.5 1.39-2.21 1.09-1.66 2.32-3.3 3.7-4.9a37.07 37.07 0 0 1 4.37-4.32c.7-.64 1.44-1.26 2.21-1.87.77-.61 1.6-1.17 2.5-1.68.32-.19.69-.37 1.1-.53.42-.16.82-.3 1.2-.43-.13.38-.19.61-.19.67-.26.71-.48 1.38-.67 2.02-.19.64-.45 1.31-.77 2.02-1.28 2.94-3.17 5.57-5.66 7.87a27.747 27.747 0 0 1-8.06 4.9c-.38.13-.77.26-1.15.38-.38.13-.8.26-1.25.38.45-.77.88-1.54 1.3-2.3ZM175.06 336.71c-.03 0-.03 0 0 0ZM198.22 255.78c-.14-2.11-.54-4.15-1.2-6.12-.66-1.98-1.72-3.83-3.19-5.56-.62-.63-1.51-1.27-2.65-1.91a15.22 15.22 0 0 0-3.71-1.48c-1.32-.34-2.63-.47-3.92-.39-1.29.09-2.29.59-3 1.5-.45.51-.73.99-.84 1.43-.12.44-.35.91-.7 1.42-.25.5-.61.96-1.06 1.37-.46.42-.9.88-1.35 1.39-.72.82-1.46 1.64-2.22 2.46-.76.82-1.5 1.64-2.22 2.46-1.6 1.94-3.2 3.87-4.81 5.81-1.6 1.94-3.2 3.87-4.81 5.81-3.12 3.77-6.21 7.56-9.27 11.37-3.06 3.81-6.1 7.7-9.1 11.65-1.69 2.13-3.32 4.29-4.91 6.46-1.59 2.18-3.17 4.42-4.74 6.74l3.53-5.43c1.75-2.62 3.53-5.17 5.33-7.65 1.8-2.48 3.63-5.03 5.48-7.66 3.7-5.06 7.46-10.03 11.27-14.9 3.81-4.87 7.67-9.8 11.57-14.78.09 0 .12-.03.07-.08a.36.36 0 0 0-.22-.06c-4.3 4.72-8.43 9.51-12.39 14.4a395.04 395.04 0 0 0-11.62 15.07c-1.85 2.53-3.68 5.06-5.48 7.58-1.8 2.53-3.58 5.1-5.33 7.72l-.54.61c1.17-2.58 2.39-5.19 3.66-7.82s2.54-5.24 3.81-7.83c2.55-5.08 5.1-10.11 7.65-15.09 2.55-4.98 5.2-9.97 7.95-14.96 1.11-2.09 2.3-4.43 3.57-7.02a40.06 40.06 0 0 0 2.93-7.92c.69-2.69.96-5.35.83-7.99-.13-2.64-.99-5.1-2.59-7.4-.96-1.38-2.47-2.45-4.55-3.23-2.07-.77-3.95-.77-5.63.02-.75.34-1.32.79-1.71 1.34-.4.56-.96 1.1-1.7 1.63-1.02.65-1.93 1.36-2.74 2.13-.81.78-1.68 1.58-2.58 2.41-1.73 1.56-3.42 3.14-5.09 4.74-1.67 1.61-3.32 3.28-4.93 5.02-3.43 3.4-6.68 6.92-9.76 10.54a319.38 319.38 0 0 0-9 11.07 458.411 458.411 0 0 0-16.63 23.12 618.755 618.755 0 0 0-15.28 23.9c-.08.2-.17.37-.25.52-.09.15-.17.33-.25.52.92-1.99 1.88-3.9 2.86-5.75.98-1.84 1.99-3.72 3.02-5.61 2.32-4.2 4.71-8.28 7.19-12.24 2.48-3.97 5.03-7.91 7.65-11.84a395.8 395.8 0 0 1 16.49-22.03 297.11 297.11 0 0 1 18.18-20.56c0-.09-.04-.16-.09-.21-.05-.04-.07-.02-.07.08a312.92 312.92 0 0 0-19.26 20.56c-6.07 7.1-11.82 14.58-17.26 22.44-2.54 3.73-5.01 7.5-7.4 11.32-2.39 3.82-4.7 7.72-6.94 11.72-1.03 1.9-2.08 3.82-3.15 5.77-1.07 1.95-2.12 3.92-3.14 5.91 1.23-3.26 2.47-6.52 3.75-9.78 1.27-3.26 2.62-6.48 4.04-9.65 1.66-3.96 3.27-7.92 4.83-11.87 1.56-3.95 3.08-7.95 4.54-11.99.73-2.07 1.52-4.24 2.38-6.51.86-2.27 1.5-4.52 1.93-6.77.43-2.24.54-4.49.34-6.73-.2-2.25-.9-4.44-2.1-6.57-.22-.37-.73-.79-1.53-1.27-.8-.47-1.65-.88-2.53-1.2-.89-.32-1.76-.48-2.63-.47-.87.01-1.47.32-1.82.92-.27.21-.53.37-.76.48-.23.11-.49.27-.76.48-.47.23-.91.38-1.34.45-.43.08-.74.12-.93.13-.85.25-1.57.59-2.17 1.01-.6.43-1.31.91-2.14 1.44-.47.22-.4.46.19.71s.98.32 1.17.21c.75-.24 1.37-.38 1.85-.41-2.04 2.64-3.61 5.68-4.73 9.12-1.12 3.44-2.25 6.7-3.39 9.75-1.65 4.15-3.32 8.28-5.01 12.39-1.7 4.11-3.42 8.24-5.16 12.4-.73 1.97-1.5 3.88-2.29 5.71s-1.55 3.74-2.29 5.71c.48-1.47.96-2.95 1.44-4.42.48-1.48.96-2.9 1.44-4.28 2.15-6.69 4.45-13.29 6.9-19.8 2.45-6.51 4.85-13.07 7.2-19.68-.02-.29-.12-.33-.3-.12-2.95 6.26-5.67 12.67-8.16 19.24-2.5 6.57-4.92 13.15-7.26 19.75-2.26 6.5-4.45 13.02-6.56 19.56-2.11 6.54-3.95 13.13-5.53 19.78-.07.39 0 .67.2.85-.06.49-.13.9-.21 1.24-.07.34-.15.71-.22 1.1-.36 1.85-.18 3.33.51 4.44.7 1.11 1.76 2.24 3.19 3.39 1.22.98 2.64 1.72 4.26 2.24 1.62.52 3.2.77 4.74.77.96.03 2.08-.12 3.36-.44 1.28-.33 2.12-1.08 2.52-2.26.16-.49.29-1.03.4-1.61s.24-1.12.4-1.61c2.29-3.14 4.38-6.43 6.27-9.87 1.88-3.45 3.83-6.77 5.83-9.99 2.42-4.01 4.85-7.97 7.29-11.89 2.43-3.92 4.91-7.83 7.44-11.75 5.07-7.65 10.37-15.08 15.9-22.28a237.56 237.56 0 0 1 17.88-20.68c3.5-3.7 7.16-7.26 10.97-10.69.45-.51.94-.98 1.49-1.4.55-.42 1.09-.89 1.64-1.41-.16.49-.37.99-.62 1.49s-.46.99-.62 1.48c-1 2.28-2.13 4.47-3.38 6.58-1.25 2.1-2.48 4.26-3.68 6.45-5.59 9.9-10.84 19.92-15.74 30.06-9.83 19.9-18.75 40.46-26.75 61.69-.42.99-.35 1.92.19 2.8.54.88 1.24 1.67 2.11 2.38.86.71 1.82 1.3 2.86 1.76 1.04.46 1.91.81 2.6 1.05.69.24 1.59.47 2.72.68 1.12.21 2.21.29 3.26.21 1.05-.07 2.05-.31 2.98-.7.93-.4 1.61-1.1 2.03-2.08.25-.59.5-1.19.75-1.78.25-.59.45-1.18.6-1.77 5.32-8.15 10.73-16.16 16.21-24.03 5.48-7.87 11.29-15.62 17.42-23.25 3.11-3.77 6.23-7.51 9.35-11.23 3.12-3.72 6.29-7.42 9.5-11.1 1.34-1.53 2.68-3.07 4.02-4.6 1.34-1.53 2.73-3.07 4.17-4.61-.87 2.85-1.84 5.66-2.9 8.42-1.63 4.34-3.22 8.66-4.76 12.95a273.44 273.44 0 0 0-4.32 13.06 244.54 244.54 0 0 0-3.65 13.38c-1.09 4.5-1.77 9.07-2.04 13.7-.2 2.8.25 5.2 1.35 7.2 1.09 2 2.8 3.78 5.12 5.36 2.32 1.58 4.94 2.6 7.85 3.08.05 0 .18-.01.43-.03.38-.03.81-.05 1.29-.09.48-.03.86-.04 1.15 0 .2.02.25.04.18.05.51-.04 1-.09 1.47-.16.52-.08 1.06-.29 1.62-.61 1.11-.65 1.47-1.33 1.09-2.02-.38-.7-1.03-1.35-1.94-1.96l-.03-.43c-.16-.86-.31-1.71-.46-2.57-.15-.86-.21-1.72-.17-2.59-.03-1.92.15-3.81.56-5.67.4-1.86.78-3.71 1.14-5.56.88-4.1 1.88-8.14 3.01-12.11 1.13-3.97 2.38-7.93 3.75-11.87 1.28-3.84 2.64-7.63 4.07-11.39 1.43-3.75 2.79-7.5 4.08-11.24.63-2.06 1.14-4.16 1.53-6.31.38-2.14.51-4.27.37-6.38Z" />
	<path d="M178.12 336.64c-.06 0-.11.02-.17.02.09 0 .14-.01.17-.02ZM252.74 270.87c-.19-.19-.7-.36-1.51-.5-.82-.14-1.08.12-.79.79 1.73 3.07 2.4 6.24 2.02 9.5-.38 3.26-1.39 6.43-3.02 9.5a80.388 80.388 0 0 1-4.82 8.35 60.65 60.65 0 0 1-5.98 7.63c-4.23 4.61-8.98 8.5-14.26 11.66-.58.38-1.06.67-1.44.86l2.16-1.73c2.02-1.73 3.98-3.46 5.9-5.18 1.92-1.73 3.79-3.55 5.62-5.47 3.17-3.46 5.83-7.13 7.99-11.02 2.16-3.89 3.48-8.23 3.96-13.03.09-.09.09-.14 0-.14s-.14.05-.14.14c-.77 4.51-2.4 8.74-4.9 12.67-2.5 3.94-5.33 7.44-8.5 10.51-1.63 1.63-3.29 3.19-4.97 4.68a214.57 214.57 0 0 1-5.11 4.39c-1.06.86-2.04 1.68-2.95 2.45a27.3 27.3 0 0 1-2.95 2.16c-.1-.19-.19-.31-.29-.36-.1-.05-.19-.12-.29-.22-.1-.09-.14-.24-.14-.43-.29-.48-.53-.96-.72-1.44-.19-.77-.34-1.53-.43-2.3-.1-.77-.14-1.53-.14-2.3-.29-2.69-.05-5.47.72-8.35.67-2.97 1.61-5.88 2.81-8.71 1.2-2.83 2.52-5.59 3.96-8.28 2.69-4.9 6.1-9.5 10.22-13.82l3.24-3.24c1.1-1.1 2.23-2.14 3.38-3.1 1.06-.77 2.06-1.49 3.02-2.16.96-.67 1.78-1.54 2.45-2.59.29-.58.29-1.13 0-1.66s-.67-1.01-1.15-1.44a7.37 7.37 0 0 0-1.58-1.08c-.58-.29-1.01-.53-1.3-.72-2.3-1.06-4.59-1.58-6.84-1.58s-4.44.41-6.55 1.22c-2.11.82-4.13 1.9-6.05 3.24-1.92 1.35-3.7 2.79-5.33 4.32a86.472 86.472 0 0 0-5.04 5.47c2.69-3.94 5.76-7.39 9.22-10.37 3.46-2.97 7.49-5.23 12.1-6.77-4.99.48-9.38 2.38-13.18 5.69-3.79 3.31-6.98 6.94-9.58 10.87-1.63 2.3-3.07 4.71-4.32 7.2-1.25 2.5-2.4 5.04-3.46 7.63l-.14.14a61.218 61.218 0 0 0-3.96 10.58 42.2 42.2 0 0 0-1.51 11.16c-.19 3.94.58 7.73 2.3 11.38.77 1.34 1.63 2.59 2.59 3.74.96 1.15 2.11 2.11 3.46 2.88 1.06.67 2.28 1.27 3.67 1.8 1.39.53 2.81.84 4.25.94 2.97 1.44 5.95 1.75 8.93.94 2.97-.82 5.85-2.09 8.64-3.82 6.24-3.74 11.52-8.4 15.84-13.97 2.02-2.59 3.96-5.54 5.83-8.86 1.87-3.31 3.22-6.74 4.03-10.3.81-3.55.91-7.03.29-10.44-.63-3.41-2.38-6.46-5.26-9.14ZM412.79 290.89c-.62-.29-1.03-.43-1.22-.43a43.97 43.97 0 0 0-9 3.53 87.634 87.634 0 0 0-8.28 4.97c-2.69 1.83-5.33 3.7-7.92 5.62s-5.23 3.79-7.92 5.62c-2.59 1.73-5.3 3.36-8.14 4.9a61.323 61.323 0 0 1-8.71 3.89c-.77.29-1.54.55-2.3.79-.77.24-1.54.46-2.3.65v-3.6c0-.86.09-1.73.29-2.59.19-1.63.53-3.24 1.01-4.82s1.01-3.19 1.58-4.82c.09-.38.19-.72.29-1.01.09-.29.24-.62.43-1.01 2.88.58 5.78.63 8.71.14 2.93-.48 5.74-1.37 8.42-2.66s5.21-2.9 7.56-4.82c2.35-1.92 4.34-4.03 5.98-6.34 3.36-4.7 5.47-10.13 6.34-16.27.19-1.63.19-3.46 0-5.47-.19-2.02-.96-3.5-2.3-4.46-.29-.38-.65-.72-1.08-1.01s-.84-.53-1.22-.72c-1.83-.86-3.77-1.39-5.83-1.58-2.07-.19-4.11-.14-6.12.14s-4.01.79-5.98 1.51a38.9 38.9 0 0 0-5.54 2.52 54.129 54.129 0 0 0-8.86 6.7 74.389 74.389 0 0 0-7.56 8.14c-2.21 2.98-4.25 6.05-6.12 9.22-.27.46-.53.93-.79 1.4-3.93 2.66-7.73 5.5-11.38 8.54-5.18 4.32-10.18 8.93-14.98 13.82.19-.38.31-.77.36-1.15.05-.38.17-.77.36-1.15 2.21-5.57 4.63-10.99 7.27-16.27 2.64-5.28 5.35-10.61 8.14-15.98 3.07-5.76 5.9-11.5 8.5-17.21 2.59-5.71 4.56-11.74 5.9-18.07.09-.19.09-.29 0-.29s-.19.05-.29.14c-1.92 6.34-4.37 12.48-7.34 18.43a618.95 618.95 0 0 1-9.22 17.71c-.48.86-.96 1.71-1.44 2.52-.48.82-.96 1.66-1.44 2.52 1.25-2.88 2.45-5.76 3.6-8.64s2.35-5.81 3.6-8.78c.96-2.3 1.87-4.61 2.74-6.91s1.78-4.61 2.74-6.91c1.05-2.5 2.02-4.92 2.88-7.27.86-2.35 1.15-4.87.86-7.56-.19-2.5-1.01-4.82-2.45-6.98-1.44-2.16-3.36-3.72-5.76-4.68l-.86-.43-.58-.29c-.86-.38-1.83-.67-2.88-.86-1.54-.38-2.79-.19-3.74.58-.48.38-.43.77.14 1.15.58.38.96.67 1.15.86-.1.48-.14.91-.14 1.3s-.1.82-.29 1.3c-.29.96-.55 1.82-.79 2.59-.24.77-.6 1.58-1.08 2.45a47.721 47.721 0 0 0-2.81 5.69c-.82 1.97-1.61 3.91-2.38 5.83-1.34 3.07-2.62 6.1-3.82 9.07-1.2 2.98-2.43 5.95-3.67 8.93v-.29c-.58-1.82-1.68-3.33-3.31-4.54-1.63-1.2-3.46-2.11-5.47-2.74-2.02-.62-4.1-.98-6.26-1.08-2.16-.09-4.06 0-5.69.29-1.92.29-3.67.89-5.26 1.8-1.58.91-3.02 2.02-4.32 3.31s-2.5 2.71-3.6 4.25-2.14 3.07-3.1 4.61c-1.92 3.07-3.7 6.22-5.33 9.43-1.63 3.22-3.22 6.5-4.75 9.86a199.79 199.79 0 0 0-8.21 21.31c-.58 1.92-1.03 3.74-1.37 5.47-.34 1.73.17 3.46 1.51 5.18.67.86 1.87 1.87 3.6 3.02 1.06.96 2.28 1.63 3.67 2.02 1.39.38 2.85.55 4.39.5 1.53-.05 3.02-.27 4.46-.65s2.74-.86 3.89-1.44c2.59-1.25 5.02-2.69 7.27-4.32 2.25-1.63 4.49-3.41 6.7-5.33l4.32-4.32c-.19 1.06-.36 2.14-.5 3.24s-.31 2.23-.5 3.38c-.1.77.26 1.61 1.08 2.52.81.91 1.46 1.61 1.94 2.09.96.77 2.06 1.46 3.31 2.09 1.25.62 2.45 1.08 3.6 1.37.38 0 .96.1 1.73.29.77.67 1.68 1.13 2.74 1.37 1.05.24 1.82.07 2.3-.5 5.66-7.1 11.61-13.75 17.86-19.94 2.86-2.84 5.76-5.67 8.68-8.5-.11.27-.22.53-.33.79a46.072 46.072 0 0 0-3.02 10.8c-.19 1.15-.36 2.28-.5 3.38s-.17 2.18-.07 3.24c.1 1.54.31 2.81.65 3.82.34 1.01.94 2.14 1.8 3.38.48.67 1.15 1.3 2.02 1.87.86.86 1.92 1.56 3.17 2.09 1.25.53 2.4.94 3.46 1.22 1.73.38 3.46.48 5.18.29 1.73-.19 3.46-.53 5.18-1.01 3.36-.96 6.57-2.25 9.65-3.89 3.07-1.63 6-3.46 8.78-5.47 3.07-2.11 6-4.32 8.78-6.62 2.78-2.3 5.62-4.56 8.5-6.77 2.78-2.21 5.64-4.32 8.57-6.34 2.93-2.02 5.88-3.98 8.86-5.9.38-.19.26-.43-.36-.72Zm-46.51-.29c.62-1.15 1.32-2.25 2.09-3.31 1.63-2.5 3.48-4.94 5.54-7.34 2.06-2.4 4.25-4.56 6.55-6.48 1.06-.96 2.16-1.89 3.31-2.81 1.15-.91 2.4-1.75 3.74-2.52.48-.29 1.03-.55 1.66-.79.62-.24 1.22-.45 1.8-.65-.19.58-.29.91-.29 1.01-.38 1.06-.72 2.07-1.01 3.02-.29.96-.67 1.97-1.15 3.02-1.92 4.42-4.75 8.35-8.5 11.81-3.65 3.17-7.68 5.62-12.1 7.34-.58.19-1.15.38-1.73.58-.58.19-1.2.38-1.87.58.67-1.15 1.32-2.3 1.94-3.46Zm-57.89-6.34c-1.68 3.94-3.19 7.92-4.54 11.95-1.83 1.63-3.65 3.24-5.47 4.82-1.82 1.58-3.7 3.19-5.62 4.82-1.83 1.44-3.7 2.93-5.62 4.46a58.627 58.627 0 0 1-6.19 4.32c.09-.38.19-.72.29-1.01.09-.29.19-.62.29-1.01.58-1.82 1.2-3.62 1.87-5.4.67-1.78 1.34-3.53 2.02-5.26 2.69-6.62 5.81-13.2 9.36-19.73.86-1.53 1.7-3.14 2.52-4.82.81-1.68 1.7-3.31 2.66-4.9.96-1.58 2.02-3.07 3.17-4.46 1.15-1.39 2.54-2.57 4.18-3.53.19-.19.45-.31.79-.36.33-.05.6-.17.79-.36.38.19.62.29.72.29.09.19.26.46.5.79.24.34.41.55.5.65 1.06 2.21 1.97 4.46 2.74 6.77-1.63 4.03-3.29 8.02-4.97 11.95ZM127.98 200.25c-.09 0-.14.01-.14.03s.05.03.14.03c7.56-.2 15.1-.41 22.62-.65 7.52-.24 15.1-.33 22.76-.29.46.2.88.24 1.25.12.74-.2 1.18-.43 1.31-.71.14-.27.21-.55.21-.82.28-1.49-1.02-2.73-3.87-3.71-1.29-.43-2.77-.75-4.43-.97-1.66-.22-3.32-.36-4.98-.44-1.85-.08-3.65-.16-5.4-.24-1.75-.08-3.55-.14-5.4-.18-7.1-.2-14.18-.28-21.24-.26-7.06.02-14.14.11-21.24.26-1.02 0-1.8.15-2.35.44-.55.29-.9.64-1.04 1.03s-.14.79 0 1.21c.14.41.35.76.62 1.03.64.63 1.38 1.23 2.21 1.79.83.57 1.98 1.03 3.46 1.38.74.16 1.47.26 2.21.29.74.04 1.43-.04 2.08-.24 5.17-.16 10.28-.28 15.36-.38 5.07-.1 10.19-.19 15.36-.27 2.67-.08 5.3-.12 7.89-.12s5.17-.04 7.75-.12a194.997 194.997 0 0 1 6.78-.12c.64 0 1.43.04 2.35.12 0 .04.05.08.14.12-7.47.12-14.92.27-22.35.47-7.43.2-14.78.59-22.07 1.18ZM362.81 193.74c.09 0 .14-.01.14-.03s-.05-.03-.14-.03c-7.56.21-15.1.44-22.62.69-7.52.25-15.1.36-22.76.34-.46-.2-.88-.23-1.25-.12-.74.2-1.17.43-1.31.71-.14.27-.21.55-.21.82-.27 1.49 1.02 2.72 3.88 3.7 1.29.43 2.77.75 4.43.96 1.66.21 3.32.36 4.98.43 1.85.07 3.64.15 5.4.22 1.75.08 3.55.13 5.4.17 7.11.18 14.18.26 21.24.22 7.06-.03 14.14-.14 21.24-.31 1.02 0 1.8-.15 2.35-.45.55-.3.9-.64 1.04-1.03s.14-.79 0-1.21c-.14-.41-.35-.76-.62-1.03-.65-.63-1.39-1.22-2.22-1.79s-1.99-1.03-3.46-1.38c-.74-.16-1.48-.25-2.21-.29-.74-.04-1.43.04-2.07.24-5.17.17-10.29.3-15.36.41-5.07.11-10.19.21-15.36.29-2.67.08-5.3.13-7.89.13-2.58 0-5.17.05-7.75.13-1.11.04-2.24.07-3.39.09-1.15.02-2.28.03-3.39.04-.64 0-1.43-.04-2.35-.11 0-.04-.05-.08-.14-.12 7.47-.13 14.92-.3 22.35-.51 7.43-.21 14.78-.62 22.07-1.22Z" />
	<path d="M461.51 272.19c-1.1-22.88-1.74-45.79-1.9-68.72-.21-23.17.05-45.8.78-67.89.73-22.08 1.29-44.52 1.69-67.3-.13-.73-.32-1.07-.58-1.02.05-2 .11-3.95.18-5.83.07-1.88.13-3.82.18-5.83.09-3.26.13-6.45.12-9.57-.02-3.11-.04-6.29-.08-9.53V25.09c-.01-3.86-.41-7.6-1.18-11.21-.95-3.82-2.65-6.76-5.11-8.82-2.46-2.05-4.62-3.42-6.49-4.09-.57-.14-1.38-.37-2.45-.69a6.98 6.98 0 0 0-3.17-.19c-1.05.19-1.95.6-2.71 1.23-.76.64-1.21 1.71-1.35 3.23.04.24.03.37-.03.38-.07.01-.08.14-.03.38-3.54 2.87-7.2 5.58-11 8.13-3.8 2.55-7.29 5.85-10.48 9.91-.7.63-.88 1.53-.53 2.71.34 1.19.87 2.22 1.56 3.09.91 1.34 1.9 2.16 2.97 2.47 1.07.31 2.12.37 3.17.19a60.95 60.95 0 0 0 11.18-3.11c-.05 1.26-.11 2.64-.17 4.15-.07 1.51-.13 2.89-.17 4.15-.41 6.06-.75 12.11-1.02 18.15-.28 6.04-.55 12.08-.83 18.11-.59 11.84-1.11 23.53-1.55 35.09-.44 11.56-.76 23.22-.96 34.98-.41 24.28-.73 48.42-.98 72.42s-.36 48.23-.33 72.67l.31 35.88.16 17.94c-.14 2.27-.1 4.38.12 6.34-2.31 1.41-4.59 2.81-6.84 4.21-2.25 1.39-4.46 2.79-6.64 4.18-.96.67-2.03 1.3-3.21 1.88-1.18.58-2.37 1.29-3.57 2.13-1.2.83-2.23 1.89-3.08 3.17-.85 1.27-1.39 2.8-1.61 4.59-.13.77.1 1.54.71 2.31.61.76 1.08 1.36 1.43 1.8 3.61 2.85 7.36 4.43 11.26 4.74 3.9.3 7.65.38 11.27.24 7.97.08 15.62-1.65 22.94-5.2 1.92-.59 3.1-2.3 3.54-5.12 1.66-2.04 2.43-5.67 2.31-10.89-.12-5.97-.24-11.94-.35-17.9-.12-5.97-.17-11.95-.16-17.94-.11-8.96-.16-17.94-.13-26.92.02-8.99.06-17.86.12-26.6.45 12.39 1.08 24.64 1.88 36.72.8 12.08 1.84 24.38 3.12 36.88-.05.51.08.86.39 1.05.3.19.48.04.52-.47-1.04-23.27-2.11-46.35-3.21-69.24ZM57.25 21.76c.85-1.27 1.39-2.8 1.61-4.59.13-.77-.1-1.54-.71-2.31-.61-.76-1.08-1.36-1.43-1.8-3.61-2.85-7.36-4.43-11.26-4.73-3.9-.3-7.65-.38-11.27-.24-7.97-.08-15.62 1.65-22.94 5.2-1.92.59-3.1 2.3-3.54 5.12-1.66 2.04-2.43 5.67-2.31 10.89.12 5.97.24 11.94.35 17.9.12 5.97.17 11.95.16 17.94.11 8.96.16 17.94.13 26.92-.02 8.99-.06 17.86-.12 26.6-.45-12.39-1.08-24.64-1.88-36.72C3.24 69.86 2.2 57.56.92 45.06c.05-.51-.08-.86-.39-1.05-.3-.19-.48-.04-.52.47 1.04 23.27 2.11 46.35 3.21 69.24 1.1 22.88 1.74 45.79 1.9 68.72.21 23.17-.05 45.8-.78 67.89-.73 22.08-1.29 44.52-1.69 67.3.13.73.32 1.07.58 1.02-.05 2-.11 3.95-.18 5.83s-.13 3.83-.18 5.83c-.09 3.26-.13 6.45-.12 9.57.02 3.11.04 6.29.08 9.53v11.41c.01 3.86.41 7.6 1.18 11.21.95 3.82 2.65 6.76 5.11 8.82 2.46 2.05 4.62 3.42 6.49 4.09.57.14 1.38.37 2.45.69 1.07.31 2.12.37 3.17.19 1.05-.19 1.95-.6 2.71-1.23.76-.64 1.21-1.71 1.35-3.23-.04-.24-.03-.37.03-.38.07-.01.08-.14.03-.38 3.54-2.87 7.2-5.58 11-8.13 3.8-2.55 7.29-5.85 10.48-9.91.7-.63.88-1.53.53-2.71-.34-1.19-.87-2.22-1.56-3.09-.91-1.34-1.9-2.16-2.97-2.47a6.98 6.98 0 0 0-3.17-.19 60.95 60.95 0 0 0-11.18 3.11c.05-1.26.11-2.64.17-4.15.07-1.51.13-2.89.17-4.15.41-6.06.75-12.11 1.02-18.15.28-6.04.55-12.08.83-18.11.59-11.84 1.11-23.53 1.55-35.08.44-11.56.76-23.22.96-34.98.41-24.28.73-48.42.98-72.42s.36-48.23.33-72.67l-.31-35.88-.16-17.94c.14-2.27.1-4.38-.12-6.34 2.31-1.41 4.59-2.81 6.84-4.21 2.25-1.39 4.46-2.79 6.64-4.18.96-.67 2.03-1.3 3.21-1.88 1.18-.58 2.37-1.29 3.57-2.13 1.2-.83 2.23-1.89 3.08-3.17Z" />
</svg>
