<?xml version="1.0" standalone="no"?>
<!DOCTYPE svg PUBLIC "-//W3C//DTD SVG 20010904//EN"
 "http://www.w3.org/TR/2001/REC-SVG-20010904/DTD/svg10.dtd">
<svg version="1.0" xmlns="http://www.w3.org/2000/svg"
 width="500.000000pt" height="500.000000pt" viewBox="0 0 500.000000 500.000000"
 preserveAspectRatio="xMidYMid meet">
<metadata>
Created by potrace 1.14, written by Peter Selinger 2001-2017
</metadata>
<g transform="translate(0.000000,500.000000) scale(0.100000,-0.100000)"
fill="#000000" stroke="none">
<path d="M5 2500 c0 -1378 1 -1941 2 -1252 2 688 2 1816 0 2505 -1 688 -2 125
-2 -1253z"/>
<path d="M2508 4800 c-4 -19 -10 -64 -13 -100 -15 -166 -89 -452 -161 -627
-50 -120 -136 -290 -196 -387 -132 -213 -362 -473 -558 -630 -377 -303 -854
-500 -1320 -544 -95 -9 -98 -8 100 -33 52 -6 156 -26 230 -44 695 -171 1274
-615 1619 -1242 146 -264 255 -602 282 -873 15 -144 24 -162 33 -63 46 555
338 1149 763 1552 382 363 893 610 1388 671 193 24 190 23 100 31 -790 76
-1493 521 -1909 1209 -194 320 -312 687 -349 1080 l-3 35 -6 -35z"/>
</g>
</svg>
