<?xml version="1.0" standalone="no"?>
<!DOCTYPE svg PUBLIC "-//W3C//DTD SVG 20010904//EN"
 "http://www.w3.org/TR/2001/REC-SVG-20010904/DTD/svg10.dtd">
<svg version="1.0" xmlns="http://www.w3.org/2000/svg"
 width="930.000000pt" height="930.000000pt" viewBox="0 0 930.000000 930.000000"
 preserveAspectRatio="xMidYMid meet">
<metadata>
Created by potrace 1.14, written by Peter Selinger 2001-2017
</metadata>
<g transform="translate(0.000000,930.000000) scale(0.100000,-0.100000)"
fill="#000000" stroke="none">
<path d="M8838 8494 c-18 -9 -31 -28 -38 -54 -9 -33 -24 -50 -88 -98 -42 -31
-79 -59 -82 -62 -3 -3 -30 -22 -61 -43 -47 -31 -112 -91 -200 -182 -10 -12
-19 -31 -19 -43 0 -37 38 -101 73 -123 39 -24 97 -20 213 16 43 14 83 25 87
25 8 0 5 -83 -9 -300 -3 -47 -7 -125 -9 -175 -2 -49 -4 -90 -4 -90 -1 0 -4
-63 -7 -140 -2 -77 -7 -176 -9 -220 -14 -237 -34 -757 -39 -981 -2 -61 -6
-116 -9 -121 -4 -6 -4 -13 0 -17 7 -7 10 -66 3 -66 -3 0 -6 -102 -6 -228 -1
-125 -5 -445 -10 -712 -4 -267 -8 -1129 -8 -1916 l-1 -1432 -160 -98 c-88 -55
-172 -105 -187 -113 -93 -46 -162 -153 -138 -215 20 -54 122 -123 212 -143 39
-9 376 -9 433 0 80 12 101 17 170 40 86 30 163 66 172 81 16 23 55 123 64 160
5 21 9 80 9 130 0 50 -3 421 -6 824 -3 402 -2 732 3 732 4 0 8 -24 9 -53 1
-53 12 -280 18 -372 2 -27 7 -97 11 -155 4 -58 9 -121 11 -140 2 -19 6 -71 9
-115 3 -44 7 -100 10 -125 3 -25 8 -67 10 -95 2 -27 6 -78 9 -113 3 -35 10
-71 16 -80 6 -12 8 28 3 123 -3 77 -6 177 -7 222 -1 46 -3 83 -6 83 -3 0 -5
37 -6 83 0 45 -4 147 -8 227 -4 80 -9 190 -11 245 -2 55 -6 143 -9 195 -12
229 -25 521 -31 720 -5 151 -17 716 -16 738 1 6 1 18 1 25 -5 397 -4 769 1
790 5 16 4 27 -2 27 -6 0 -8 4 -5 9 3 5 8 125 11 267 5 257 10 431 19 719 11
331 18 689 18 845 -1 91 -1 201 0 245 4 634 0 882 -17 964 -26 130 -106 225
-234 277 -64 27 -114 30 -153 8z m354 -5519 c3 -14 1 -25 -3 -25 -5 0 -9 11
-9 25 0 14 2 25 4 25 2 0 6 -11 8 -25z"/>
<path d="M444 8320 c-61 -15 -127 -35 -147 -44 -21 -9 -53 -23 -72 -31 -23
-11 -42 -30 -55 -55 -11 -22 -18 -40 -15 -40 3 0 -2 -11 -10 -24 -9 -13 -18
-33 -20 -45 -3 -11 -7 -31 -10 -43 -6 -24 -6 -91 0 -613 8 -712 7 -1041 -2
-1031 -4 4 -8 40 -9 79 -1 40 -5 113 -8 162 -4 50 -9 131 -11 180 -12 196 -21
320 -40 510 -2 17 -6 64 -9 105 -4 41 -9 93 -12 115 -3 22 -5 48 -5 57 0 10
-4 20 -10 23 -5 4 -7 -42 -3 -117 2 -68 7 -162 9 -210 2 -48 6 -91 9 -97 4 -5
2 -12 -4 -16 -6 -4 -7 -11 -4 -17 4 -6 8 -45 10 -87 1 -42 6 -139 9 -216 4
-77 8 -174 10 -215 3 -67 7 -168 20 -430 2 -47 7 -157 10 -245 3 -88 8 -207
10 -265 2 -58 6 -233 9 -390 4 -157 6 -287 7 -290 0 -3 1 -210 1 -460 0 -411
-5 -712 -18 -1145 -19 -636 -26 -969 -26 -1135 0 -85 0 -204 0 -265 -3 -379 0
-808 6 -855 16 -140 38 -193 107 -263 141 -141 314 -155 335 -27 4 19 43 52
182 151 103 73 176 139 240 214 34 39 23 94 -28 145 -34 34 -41 37 -86 34 -59
-3 -113 -13 -135 -25 -9 -4 -27 -10 -40 -13 -13 -3 -34 -8 -46 -12 -22 -6 -22
-6 -18 102 3 60 7 145 10 189 6 91 14 251 20 405 2 58 6 150 9 205 12 204 17
313 21 435 3 69 7 186 10 260 8 198 14 467 20 795 3 160 8 454 11 655 4 201 7
1036 8 1857 1 821 4 1494 7 1495 2 2 15 9 29 17 116 66 352 216 383 242 60 51
88 127 64 174 -25 49 -107 102 -207 133 -8 2 -103 5 -210 7 -183 2 -202 1
-306 -25z m-325 -1967 c0 -25 -1 -25 -8 -8 -5 11 -7 23 -4 28 8 14 13 7 12
-20z m-2 -55 c-3 -8 -6 -5 -6 6 -1 11 2 17 5 13 3 -3 4 -12 1 -19z"/>
<path d="M3738 7635 c-16 -9 -28 -19 -28 -24 0 -4 -19 -21 -42 -38 -43 -31
-299 -281 -393 -383 -110 -120 -344 -419 -455 -580 -19 -27 -41 -58 -48 -68
-7 -9 -62 -91 -122 -182 -60 -91 -114 -171 -120 -177 -6 -7 -8 -13 -5 -13 3 0
-10 -21 -28 -47 -18 -27 -46 -72 -62 -100 -15 -29 -33 -53 -38 -53 -6 0 -3 8
5 18 8 9 28 45 44 80 16 34 32 62 36 62 5 0 8 6 8 13 0 11 61 118 100 177 6 8
13 22 17 30 7 17 252 389 267 407 13 15 27 34 105 138 33 44 64 85 68 90 31
40 180 222 188 231 48 51 132 149 139 162 4 10 -3 5 -17 -11 -14 -15 -53 -58
-88 -95 -56 -59 -92 -99 -190 -212 -12 -14 -33 -41 -48 -60 -14 -19 -31 -39
-37 -45 -47 -41 -434 -595 -416 -595 4 0 2 -4 -4 -8 -6 -4 -19 -20 -28 -37 -9
-16 -26 -46 -37 -65 -21 -35 -49 -85 -128 -230 -22 -41 -41 -73 -41 -70 0 7
59 164 80 215 18 41 47 112 65 155 10 25 24 59 31 76 30 68 86 220 87 232 0 6
4 12 9 12 4 0 8 6 8 14 0 12 61 187 93 266 5 14 11 32 13 40 28 132 29 201 4
280 -21 66 -25 70 -73 95 -49 24 -117 34 -117 17 0 -11 -56 -39 -90 -46 -32
-7 -85 -52 -70 -61 5 -3 19 -3 30 0 20 6 28 -9 11 -19 -16 -10 -68 -129 -110
-256 -24 -69 -49 -138 -56 -155 -11 -25 -59 -146 -95 -240 -4 -11 -7 -23 -6
-26 0 -3 -4 -12 -10 -20 -7 -8 -35 -74 -64 -147 -29 -73 -53 -132 -55 -130 -3
3 41 149 55 183 5 11 16 45 26 75 9 30 19 60 23 65 3 6 6 15 6 20 1 6 4 17 8
25 9 20 68 182 71 195 2 6 6 17 9 25 21 48 96 265 93 268 -5 4 -86 -182 -86
-197 0 -6 -4 -11 -10 -11 -5 0 -9 -3 -8 -7 0 -5 -2 -17 -7 -28 -44 -115 -119
-317 -156 -425 -36 -103 -38 -109 -39 -115 0 -3 -11 -34 -25 -70 -13 -36 -22
-65 -18 -65 3 0 1 -6 -4 -12 -6 -7 -29 -74 -52 -148 -23 -74 -46 -146 -51
-160 -11 -30 -65 -231 -76 -280 -9 -43 -13 -82 -15 -138 -2 -95 121 -184 256
-184 70 0 104 18 120 65 7 20 11 37 9 37 -2 0 20 37 50 83 29 45 69 111 88
147 20 36 49 88 66 115 17 28 43 74 58 103 16 28 32 52 36 52 4 0 8 4 8 9 0
13 211 352 299 481 122 180 178 259 195 275 9 9 21 26 27 37 20 37 145 190
277 338 89 100 363 373 368 367 8 -8 -29 -89 -88 -194 -32 -56 -58 -107 -58
-112 0 -5 -3 -11 -7 -13 -5 -1 -16 -18 -26 -37 -10 -19 -43 -81 -73 -138 -132
-250 -291 -579 -419 -868 -78 -176 -175 -412 -175 -424 0 -6 -5 -11 -12 -11
-6 0 -9 -3 -6 -6 4 -3 -7 -37 -22 -75 -16 -38 -26 -69 -22 -69 4 0 3 -4 -3 -8
-5 -4 -18 -29 -29 -57 -29 -78 -56 -157 -56 -166 0 -5 14 -25 32 -44 68 -78
222 -121 307 -85 26 10 61 61 61 87 0 13 190 307 201 311 5 2 9 9 9 16 0 7 8
21 18 32 9 11 35 46 57 79 77 117 246 353 293 410 4 6 32 42 62 80 29 39 58
75 64 80 6 6 24 27 39 48 16 20 39 50 52 65 14 15 28 32 32 37 10 13 215 257
228 271 17 19 113 128 134 153 12 13 21 22 21 19 0 -9 -47 -149 -77 -228 -3
-8 -7 -19 -9 -25 -2 -5 -22 -62 -44 -125 -23 -63 -43 -123 -45 -134 -3 -10 -9
-23 -14 -30 -5 -6 -10 -15 -10 -21 -2 -16 -21 -88 -28 -105 -3 -8 -7 -19 -8
-25 -2 -5 -12 -44 -24 -85 -11 -41 -22 -84 -24 -95 -2 -11 -9 -38 -15 -60 -14
-52 -21 -90 -37 -198 -9 -65 -7 -153 4 -192 11 -40 72 -124 102 -141 40 -22
107 -53 134 -62 48 -15 142 -6 170 16 l25 20 -24 29 c-28 34 -44 119 -35 188
10 70 19 127 24 145 2 8 7 29 10 45 3 17 12 57 20 90 9 33 17 67 19 75 20 78
37 134 101 325 40 121 79 234 86 250 7 17 13 35 15 40 2 6 15 44 29 85 71 207
74 344 11 468 -50 97 -123 142 -238 145 -43 1 -71 -20 -98 -73 -10 -19 -38
-55 -62 -80 -36 -38 -101 -115 -143 -168 -5 -7 -17 -21 -26 -30 -16 -17 -318
-393 -371 -462 -15 -19 -52 -69 -84 -110 -32 -41 -59 -77 -61 -79 -2 -2 -5 -2
-7 0 -3 3 4 16 15 29 21 27 85 115 109 150 15 23 63 87 79 106 4 5 13 20 20
31 6 12 17 27 24 35 7 7 47 58 88 113 41 55 79 106 86 115 7 8 26 33 42 55 17
22 37 47 44 55 54 61 90 112 70 99 -13 -7 -23 -17 -23 -22 0 -4 -12 -20 -27
-35 -16 -15 -44 -48 -64 -72 -20 -25 -45 -55 -55 -66 -24 -27 -61 -74 -109
-139 -21 -27 -44 -57 -52 -65 -8 -8 -32 -40 -53 -70 -22 -30 -43 -59 -47 -65
-25 -31 -145 -200 -183 -257 -24 -37 -46 -65 -48 -63 -10 9 457 944 489 979 5
6 9 17 9 25 0 8 6 22 13 30 15 19 52 128 63 186 26 142 -8 254 -98 320 -34 25
-124 30 -160 10z"/>
<path d="M5393 7578 c-13 -6 -23 -16 -23 -22 0 -6 -14 -24 -30 -40 -17 -16
-30 -33 -30 -37 0 -5 -13 -30 -28 -56 -54 -92 -114 -243 -108 -269 17 -65 149
-144 243 -144 50 0 91 25 109 68 42 99 84 238 85 280 3 86 0 99 -41 144 -56
64 -133 97 -177 76z"/>
<path d="M3395 7409 c-4 -6 -5 -12 -2 -15 2 -3 7 2 10 11 7 17 1 20 -8 4z"/>
<path d="M6200 7216 c-99 -31 -256 -133 -361 -236 -140 -137 -219 -278 -235
-418 -10 -91 -11 -113 -4 -117 14 -8 1 -68 -19 -86 -11 -10 -23 -19 -26 -19
-3 0 -13 -8 -23 -17 -10 -10 -30 -27 -43 -38 -40 -33 -222 -189 -239 -205 -66
-61 -102 -91 -106 -88 -4 5 -1 11 137 295 55 111 99 204 99 207 0 4 8 25 19
49 38 87 41 100 46 170 4 71 0 62 -18 -34 -9 -44 -185 -414 -194 -405 -3 2 2
19 11 38 142 311 167 402 126 480 -25 48 -32 55 -114 104 -102 61 -171 55
-191 -16 -4 -14 -28 -70 -55 -125 -48 -100 -102 -216 -105 -225 -1 -3 -7 -16
-13 -30 -44 -102 -72 -175 -72 -186 0 -8 -5 -14 -10 -14 -6 0 -9 -3 -8 -7 2
-5 -8 -37 -21 -73 -26 -74 -29 -83 -27 -91 0 -3 -4 -12 -10 -20 -17 -22 -64
-181 -59 -204 2 -11 4 -22 4 -25 1 -3 17 -23 37 -44 34 -36 115 -81 166 -92
30 -7 99 -7 105 0 3 3 13 1 23 -4 19 -10 66 26 166 125 42 42 165 155 233 215
34 29 174 155 188 169 17 16 16 18 44 -49 26 -63 72 -142 105 -183 29 -35 118
-220 131 -271 11 -46 11 -166 -1 -166 -21 0 -135 73 -178 115 -52 49 -88 95
-89 112 -1 7 -2 19 -3 26 -1 6 4 25 12 41 14 29 13 31 -17 58 -59 53 -127 29
-148 -52 -6 -23 -5 -45 2 -65 7 -16 17 -45 24 -62 7 -18 17 -33 22 -33 5 0 9
-5 9 -10 0 -17 90 -98 160 -145 62 -40 200 -109 200 -99 0 3 9 0 20 -6 11 -6
53 -13 92 -15 40 -3 86 -7 102 -10 44 -9 92 12 106 45 11 27 16 126 8 160 -19
75 -66 177 -134 288 -75 121 -84 137 -100 172 -9 19 -29 76 -44 127 l-27 92
22 55 c26 64 94 163 179 261 130 149 206 214 290 249 20 8 36 18 36 21 0 3 -9
1 -20 -5 -11 -6 -20 -8 -20 -5 0 3 -13 -1 -30 -10 -16 -9 -30 -13 -30 -10 0 3
-6 1 -12 -5 -7 -6 -34 -24 -60 -41 -42 -27 -127 -108 -203 -194 -23 -25 -22
-23 6 19 70 107 277 283 356 302 12 4 23 10 23 16 0 5 4 7 9 4 9 -6 69 35 88
60 30 41 -53 136 -152 173 -61 23 -123 25 -185 7z"/>
<path d="M7134 7051 c-64 -18 -174 -69 -213 -99 -118 -89 -250 -220 -300 -297
-14 -22 -28 -42 -31 -45 -11 -10 -97 -155 -113 -190 -54 -121 -66 -150 -81
-195 -46 -143 -54 -301 -18 -370 62 -121 211 -176 375 -138 98 23 273 102 342
155 6 5 47 34 92 66 45 31 92 66 105 77 13 11 43 36 68 55 25 19 50 39 56 45
6 6 47 37 90 70 43 33 81 62 84 65 3 3 25 19 50 35 25 16 47 32 50 35 11 11
126 86 144 93 15 6 16 10 6 23 -8 8 -20 12 -29 9 -9 -4 -23 -8 -31 -10 -39 -9
-110 -39 -160 -67 -30 -17 -64 -36 -75 -42 -30 -17 -136 -90 -270 -186 -196
-141 -309 -206 -445 -257 -112 -43 -109 -44 -105 36 4 68 30 196 45 216 4 6
10 22 14 37 6 26 7 27 89 26 45 0 97 3 115 7 168 34 347 156 437 300 107 170
145 396 81 479 -24 32 -70 60 -119 73 -52 14 -193 11 -253 -6z m240 -212 c-67
-185 -190 -323 -366 -408 -46 -22 -96 -43 -112 -47 l-30 -7 24 39 c97 161 201
286 330 395 80 67 161 114 178 104 1 -1 -9 -35 -24 -76z"/>
<path d="M5551 5054 c-18 -8 -30 -18 -27 -22 6 -10 6 -10 -140 -153 -138 -135
-256 -264 -349 -383 -16 -21 -38 -48 -48 -60 -10 -11 -26 -33 -35 -48 -9 -16
-20 -28 -25 -28 -5 0 12 37 36 83 80 147 95 177 108 215 19 56 20 62 21 123 1
80 -32 127 -120 169 -46 22 -91 22 -118 -1 -13 -10 -13 -14 1 -29 24 -27 22
-40 -42 -190 -23 -54 -67 -140 -69 -137 -2 1 10 41 27 87 16 46 29 89 28 95
-1 18 -44 -85 -88 -212 -46 -129 -57 -147 -118 -184 -21 -13 -42 -27 -48 -31
-5 -5 -41 -30 -80 -58 -38 -27 -75 -53 -81 -58 -5 -5 -21 -15 -35 -22 -13 -7
-26 -16 -29 -20 -8 -11 -191 -97 -224 -106 l-29 -7 6 59 c7 58 13 97 17 102 2
1 3 5 5 10 1 4 4 14 8 22 3 8 7 21 9 28 3 10 25 15 73 16 72 3 91 6 113 19 6
5 12 5 12 2 0 -8 107 51 125 68 7 7 26 24 41 38 36 30 108 141 113 172 1 4 1
8 2 10 0 1 2 9 4 17 2 8 7 26 10 40 12 43 9 119 -5 145 -16 30 -81 63 -135 68
-22 2 -66 -3 -98 -10 -66 -15 -167 -60 -167 -74 0 -5 -6 -9 -12 -9 -20 0 -143
-124 -192 -193 -49 -69 -136 -233 -136 -257 0 -9 -5 -21 -12 -28 -7 -7 -9 -12
-6 -12 3 0 1 -24 -6 -54 -16 -69 -13 -147 9 -183 17 -29 74 -74 104 -81 53
-14 150 -4 216 23 62 24 241 133 277 168 7 7 31 26 53 42 22 17 51 40 65 52
13 12 25 21 26 20 1 -1 -8 -34 -21 -73 -37 -115 -36 -142 6 -182 33 -31 78
-48 146 -57 38 -5 44 -2 90 43 26 26 89 103 138 171 192 263 417 529 509 601
15 11 12 2 -11 -45 -17 -33 -38 -78 -49 -100 -10 -22 -20 -42 -23 -45 -20 -17
-147 -296 -175 -382 -49 -148 -50 -189 -10 -237 14 -17 28 -30 32 -29 4 1 17
-3 30 -10 13 -7 43 -16 68 -19 37 -4 55 0 106 27 98 50 246 182 363 322 66 79
122 146 137 162 39 43 31 84 -14 73 -13 -4 -64 -48 -113 -98 -216 -220 -264
-266 -344 -334 l-24 -20 7 30 c10 46 10 46 36 110 13 33 43 99 67 146 24 47
43 91 43 97 0 6 4 12 8 14 12 5 128 244 153 313 28 79 32 152 12 185 -50 79
-140 120 -202 94z m-1033 -276 c-3 -7 -13 -37 -23 -65 -11 -29 -23 -53 -27
-53 -4 0 -8 -7 -8 -15 0 -23 -134 -153 -164 -161 -15 -3 -26 -9 -26 -13 0 -4
-17 -13 -37 -20 -21 -8 -44 -16 -52 -19 -10 -4 -9 4 5 29 10 19 22 36 27 37 4
2 7 8 7 14 0 18 99 135 156 185 84 72 153 112 142 81z"/>
<path d="M4806 4815 c-9 -26 -7 -32 5 -12 6 10 9 21 6 23 -2 3 -7 -2 -11 -11z"/>
<path d="M2157 4656 c-14 -5 -29 -16 -32 -24 -12 -33 63 -99 122 -107 16 -2
30 -4 33 -5 3 -1 28 -1 55 1 186 9 496 12 502 5 4 -3 -12 -6 -35 -6 -22 0 -43
-3 -45 -7 -3 -5 27 -6 66 -4 40 3 62 6 50 9 -39 6 -25 17 21 17 26 0 42 -4 39
-10 -2 -7 36 -10 114 -9 208 4 199 3 183 15 -12 9 -11 9 5 4 11 -4 31 -10 45
-12 20 -4 22 -2 10 6 -9 7 -10 11 -3 11 6 0 14 -4 17 -9 10 -15 202 -13 213 2
36 47 -43 98 -177 112 -165 19 -1136 27 -1183 11z m820 -122 c-3 -3 -12 -4
-19 -1 -8 3 -5 6 6 6 11 1 17 -2 13 -5z m38 -4 c3 -6 -1 -7 -9 -4 -18 7 -21
14 -7 14 6 0 13 -4 16 -10z m42 4 c-3 -3 -12 -4 -19 -1 -8 3 -5 6 6 6 11 1 17
-2 13 -5z m40 0 c-3 -3 -12 -4 -19 -1 -8 3 -5 6 6 6 11 1 17 -2 13 -5z m40 0
c-3 -3 -12 -4 -19 -1 -8 3 -5 6 6 6 11 1 17 -2 13 -5z"/>
<path d="M7130 4630 c-9 -6 -10 -10 -3 -10 6 0 15 5 18 10 8 12 4 12 -15 0z"/>
<path d="M6757 4624 c-1 -2 -41 -5 -87 -7 -47 -2 -94 -7 -105 -11 -13 -5 -16
-5 -7 1 17 13 -148 11 -167 -1 -9 -6 -12 -5 -8 1 4 6 -8 9 -31 8 -50 -3 -49
-2 -55 -24 -6 -23 0 -31 38 -58 28 -19 46 -25 115 -38 64 -12 334 -19 747 -19
465 0 503 3 503 40 0 23 -50 72 -90 88 -47 19 -49 19 -265 11 -290 -10 -377
-11 -382 -1 -4 5 -2 7 3 4 5 -3 18 -2 29 2 15 6 11 8 -17 8 -24 0 -35 -4 -32
-12 2 -6 -5 -12 -16 -13 -11 -1 -20 3 -20 8 0 6 5 7 10 4 6 -3 10 -1 10 4 0
16 -11 13 -32 -6 -18 -16 -18 -16 -12 0 5 13 2 16 -10 11 -9 -3 -13 -10 -10
-15 3 -5 0 -9 -5 -9 -6 0 -11 7 -11 16 0 8 -5 12 -10 9 -6 -4 -8 -12 -4 -18 3
-7 0 -5 -8 3 -11 12 -63 22 -71 14z m-302 -24 c3 -6 -1 -7 -9 -4 -18 7 -21 14
-7 14 6 0 13 -4 16 -10z m40 0 c3 -6 -1 -7 -9 -4 -18 7 -21 14 -7 14 6 0 13
-4 16 -10z m298 3 c-13 -2 -33 -2 -45 0 -13 2 -3 4 22 4 25 0 35 -2 23 -4z"/>
<path d="M7020 4620 c0 -5 7 -7 15 -4 8 4 15 8 15 10 0 2 -7 4 -15 4 -8 0 -15
-4 -15 -10z"/>
<path d="M7068 4623 c7 -3 16 -2 19 1 4 3 -2 6 -13 5 -11 0 -14 -3 -6 -6z"/>
<path d="M2900 4520 c0 -5 5 -10 11 -10 5 0 7 5 4 10 -3 6 -8 10 -11 10 -2 0
-4 -4 -4 -10z"/>
<path d="M2720 4510 c-9 -6 -10 -10 -3 -10 6 0 15 5 18 10 8 12 4 12 -15 0z"/>
<path d="M3084 4195 c-17 -7 -38 -21 -45 -31 -8 -11 -30 -31 -49 -45 -87 -65
-358 -336 -470 -469 -30 -36 -57 -67 -61 -70 -3 -3 -32 -39 -64 -80 -33 -41
-62 -77 -65 -80 -14 -14 -70 -90 -70 -94 0 -3 -8 -14 -17 -25 -10 -10 -43 -53
-73 -96 -30 -43 -61 -83 -67 -91 -7 -7 -13 -15 -13 -18 0 -5 -60 -96 -70 -106
-3 -3 -39 -57 -80 -120 -41 -63 -78 -116 -82 -118 -5 -2 -8 -8 -8 -13 0 -11
-72 -123 -82 -127 -5 -2 -8 -10 -8 -17 0 -7 -9 -23 -21 -36 -13 -16 -9 -2 14
41 43 83 144 257 168 292 11 14 19 30 19 35 0 5 8 18 18 29 9 11 26 35 36 54
11 19 22 37 26 40 3 3 23 32 44 65 40 64 78 119 101 148 8 9 15 19 15 22 0 11
322 421 347 441 7 6 13 14 13 17 0 3 12 18 28 34 52 55 117 128 136 153 25 34
-162 -159 -222 -228 -26 -30 -62 -71 -79 -90 -18 -19 -33 -38 -33 -42 0 -4
-15 -22 -33 -41 -58 -59 -258 -329 -345 -464 -18 -27 -37 -57 -42 -65 -35 -52
-80 -122 -80 -125 0 -1 -24 -43 -54 -92 -29 -50 -75 -130 -101 -179 -25 -49
-49 -91 -51 -94 -12 -12 114 307 172 435 7 17 33 82 57 145 24 63 48 124 52
135 5 11 9 22 10 25 1 3 4 12 8 20 77 188 110 312 111 415 1 77 -3 97 -24 139
-14 28 -34 55 -45 60 -11 6 -22 13 -25 16 -6 6 -25 11 -62 17 -16 3 -37 -3
-55 -15 -15 -12 -46 -26 -69 -31 -43 -11 -99 -52 -88 -64 4 -4 17 -4 30 -1 22
6 21 2 -19 -77 -23 -46 -51 -111 -61 -144 -15 -52 -85 -236 -118 -315 -6 -14
-12 -29 -14 -35 -6 -22 -52 -126 -58 -132 -3 -3 -6 -15 -6 -25 0 -10 -4 -18
-8 -18 -5 0 -9 -6 -9 -12 -1 -17 -85 -219 -89 -215 -2 2 12 50 32 108 19 57
37 109 38 114 3 10 8 24 23 63 8 23 8 23 18 57 5 17 19 54 32 83 12 28 23 53
22 55 -1 4 13 43 37 100 13 31 21 57 18 57 -2 0 3 14 12 31 8 17 17 38 19 47
2 10 10 36 19 60 8 24 11 40 6 37 -6 -3 -10 -13 -10 -21 0 -8 -4 -14 -10 -14
-5 0 -10 -7 -10 -15 0 -9 -13 -45 -30 -80 -16 -35 -30 -68 -30 -72 0 -4 -15
-43 -34 -88 -31 -74 -47 -112 -51 -125 -3 -8 -15 -42 -35 -95 -10 -27 -26 -75
-36 -105 -10 -30 -21 -59 -25 -65 -6 -10 -197 -585 -205 -617 -4 -19 -6 -25
-24 -93 -32 -117 -43 -181 -43 -248 0 -27 9 -48 30 -75 29 -36 131 -96 169
-99 11 -1 24 -3 29 -4 6 -2 33 0 62 4 41 6 56 13 73 36 11 16 20 37 20 46 0
10 29 63 64 119 35 55 75 121 88 146 87 157 414 681 430 688 5 2 8 8 8 12 0 5
21 39 48 75 26 37 52 74 57 83 6 8 15 23 22 31 163 219 261 344 313 401 177
195 283 304 387 400 61 56 88 78 82 65 -3 -5 -21 -43 -39 -82 -19 -40 -38 -73
-43 -73 -6 0 -7 -3 -4 -6 4 -4 -2 -19 -12 -33 -10 -14 -40 -66 -66 -116 -26
-49 -52 -95 -56 -100 -11 -15 -59 -105 -160 -305 -49 -96 -94 -180 -99 -187
-6 -7 -10 -16 -10 -21 0 -6 -18 -46 -40 -90 -41 -83 -112 -233 -115 -242 -4
-13 -26 -62 -60 -135 -20 -44 -55 -123 -77 -175 -47 -112 -66 -158 -79 -185
-14 -32 -125 -315 -145 -372 -14 -41 -16 -56 -7 -76 29 -63 176 -129 272 -122
64 5 85 21 116 92 28 62 393 607 472 703 7 8 32 42 57 75 56 74 49 65 121 155
54 69 303 368 315 380 3 3 30 34 60 70 30 36 70 82 89 103 19 20 47 51 63 69
15 17 31 29 34 25 5 -4 -38 -132 -73 -217 -3 -8 -7 -19 -9 -25 -1 -5 -16 -48
-34 -95 -138 -371 -237 -774 -223 -912 10 -96 73 -179 173 -226 68 -32 80 -35
153 -35 91 0 138 40 87 76 -10 7 -22 29 -26 48 -7 37 -7 152 0 184 58 274 121
493 215 750 72 195 129 365 133 395 2 14 6 30 9 35 4 6 5 51 4 102 -4 172 -71
284 -192 319 -98 28 -151 17 -174 -37 -6 -16 -27 -46 -46 -67 -30 -33 -69 -77
-143 -162 -32 -37 -51 -60 -95 -115 -21 -28 -42 -52 -45 -55 -3 -3 -24 -27
-45 -55 -22 -27 -42 -52 -45 -55 -9 -8 -201 -248 -255 -320 -88 -115 -148
-185 -90 -105 20 28 43 61 53 75 27 40 146 205 152 210 3 3 30 39 60 80 30 41
57 77 60 80 3 3 44 55 90 115 47 61 88 115 92 120 5 6 24 28 43 50 19 22 35
43 35 47 0 9 -41 -32 -92 -93 -20 -24 -44 -54 -55 -66 -88 -104 -133 -160
-237 -298 -54 -71 -104 -137 -111 -146 -28 -36 -164 -232 -168 -243 -2 -6 -7
-9 -10 -6 -3 3 16 49 41 102 26 54 48 103 50 110 2 7 7 17 12 23 4 5 69 131
144 280 76 148 141 274 145 280 21 26 133 254 155 314 86 239 26 428 -144 454
-19 3 -49 0 -66 -8z m-304 -1569 c0 -2 -8 -10 -17 -17 -16 -13 -17 -12 -4 4
13 16 21 21 21 13z"/>
<path d="M6624 4033 c-17 -13 -17 -14 3 -28 14 -10 20 -23 18 -37 -7 -36 -27
-93 -36 -102 -5 -6 -9 -18 -9 -27 0 -10 -4 -19 -8 -21 -5 -1 -46 -91 -91 -198
-88 -209 -87 -206 -124 -292 -14 -31 -23 -59 -19 -62 3 -3 0 -6 -6 -6 -7 0
-12 4 -12 10 0 5 -14 25 -32 45 -33 38 -102 78 -153 89 -16 3 -41 9 -55 12
-32 6 -113 6 -168 -1 -139 -18 -260 -145 -416 -435 -31 -58 -60 -114 -65 -125
-5 -11 -22 -49 -39 -85 -97 -212 -193 -488 -198 -569 -3 -52 -2 -54 49 -106
74 -73 114 -90 212 -89 100 1 160 23 281 103 89 59 122 85 201 161 48 46 54
48 47 18 -3 -13 -8 -46 -11 -74 -5 -51 -5 -53 38 -96 43 -42 123 -88 154 -88
9 0 33 -9 54 -19 21 -11 46 -18 57 -17 10 2 43 32 73 67 122 146 458 499 474
499 2 0 -6 -32 -20 -71 -13 -38 -26 -87 -29 -107 -3 -20 -9 -55 -13 -77 -31
-169 42 -291 203 -339 74 -23 227 -1 315 44 20 10 39 19 43 20 4 1 17 4 28 7
11 3 20 9 20 14 0 5 6 9 14 9 16 0 199 118 204 131 2 5 8 9 13 9 6 0 56 37
112 82 56 45 107 86 112 90 6 4 25 20 44 35 68 54 204 152 291 209 49 33 90
62 90 66 0 4 -8 9 -18 12 -45 15 -235 -77 -402 -193 -52 -36 -100 -70 -107
-76 -64 -56 -265 -184 -373 -236 -47 -22 -92 -45 -101 -49 -15 -8 -87 -30
-115 -36 -27 -5 8 218 49 317 l12 29 110 4 c134 5 236 39 340 116 145 107 232
234 274 403 22 88 25 200 6 237 -64 124 -287 149 -492 55 -151 -69 -337 -242
-456 -425 -67 -104 -83 -121 -158 -175 -46 -33 -91 -67 -100 -75 -9 -8 -30
-26 -46 -40 -75 -63 -192 -169 -235 -214 -45 -45 -63 -45 -39 2 5 9 19 42 31
72 46 113 63 148 292 600 85 169 169 344 187 390 35 92 85 269 78 276 -2 3
-10 -17 -17 -43 -23 -81 -78 -211 -158 -373 -42 -85 -79 -157 -82 -160 -3 -3
-21 -38 -40 -77 -19 -40 -38 -73 -42 -73 -5 0 -8 -6 -8 -14 0 -8 -4 -18 -10
-21 -11 -7 -2 23 12 41 5 7 11 20 13 30 3 16 106 275 134 339 10 21 23 58 22
62 0 2 9 24 20 50 34 78 42 98 44 103 0 3 6 15 13 28 7 12 10 22 6 22 -3 0 -2
6 3 13 26 31 37 154 21 216 -29 114 -102 183 -228 219 -45 13 -63 12 -86 -5z
m-417 -822 c7 -10 24 -47 38 -81 30 -71 34 -49 -43 -230 -24 -58 -61 -152 -83
-209 -27 -73 -49 -114 -72 -135 -126 -121 -410 -343 -415 -326 -11 33 113 330
251 600 140 273 190 347 263 385 38 19 47 19 61 -4z m1611 -53 c-3 -7 -15 -43
-27 -80 -33 -98 -111 -213 -197 -288 -73 -64 -201 -135 -278 -154 -26 -6 -28
-5 -17 8 7 8 21 31 31 50 64 127 277 362 379 420 9 5 18 12 21 16 7 8 72 39
84 40 4 0 6 -6 4 -12z"/>
<path d="M2760 4000 c-9 -6 -10 -10 -3 -10 6 0 15 5 18 10 8 12 4 12 -15 0z"/>
<path d="M4588 3437 c-113 -39 -210 -118 -316 -257 -23 -30 -47 -61 -53 -68
-14 -17 -115 -214 -152 -297 -44 -100 -58 -140 -83 -250 -14 -62 -21 -243 -11
-285 24 -104 85 -198 158 -243 62 -38 223 -84 285 -81 61 3 67 5 128 32 27 12
50 22 52 22 2 0 44 26 92 57 142 94 295 259 373 403 13 25 26 47 29 50 8 8 37
79 57 140 13 39 18 86 18 160 0 94 -3 111 -27 160 -15 30 -38 67 -50 81 -25
28 -62 51 -70 43 -3 -3 4 -37 17 -75 12 -39 21 -85 19 -102 -8 -75 -14 -104
-28 -143 -25 -73 -128 -254 -171 -301 -5 -6 -20 -24 -32 -40 -55 -72 -120
-133 -271 -254 -7 -6 -16 -8 -19 -5 -4 3 13 23 38 43 84 71 217 212 255 270
21 32 41 60 44 63 17 16 77 151 85 193 2 9 0 17 -6 17 -5 0 -9 -7 -9 -16 0 -9
-12 -39 -26 -67 -49 -99 -119 -193 -214 -287 -90 -90 -298 -270 -311 -270 -4
0 -14 12 -24 26 -23 35 -28 185 -9 268 40 176 143 387 261 533 54 68 196 209
238 238 16 11 44 35 62 53 31 32 32 35 19 61 -16 30 -91 75 -146 86 -130 28
-277 -30 -421 -165 -38 -36 -69 -62 -69 -58 0 13 157 164 203 196 26 17 72 43
102 57 30 13 55 27 55 30 0 7 5 8 -72 -18z m-68 -1261 c0 -2 -8 -10 -17 -17
-16 -13 -17 -12 -4 4 13 16 21 21 21 13z"/>
</g>
</svg>
