<svg xmlns="http://www.w3.org/2000/svg">
	<symbol id="scene" fill-rule="evenodd" stroke-miterlimit="10" stroke-linecap="round" stroke-width="10" fill="currentColor">

	<path d="M798.48 5v200h-300V5h300m0-5h-300c-2.76 0-5 2.24-5 5v200c0 2.76 2.24 5 5 5h300c2.76 0 5-2.24 5-5V5c0-2.76-2.24-5-5-5Z"/>
	<path d="M498.48 5h80.43v200h-80.43z" style="fill: var(--left-box)" />
	<path d="M718.04 5h80.43v200h-80.43z" style="fill: var(--right-box)" />

	<path d="M798.48 515.96v200h-300v-200h300m0-5h-300c-2.76 0-5 2.24-5 5v200c0 2.76 2.24 5 5 5h300c2.76 0 5-2.24 5-5v-200c0-2.76-2.24-5-5-5Z"/>
	<path d="M498.48 515.96h40.22v200h-40.22z" style="fill: var(--left-box)" />
	<path d="M758.26 515.96h40.22v200h-40.22z" style="fill: var(--right-box)" />

	<path d="M450.65 231.86v263.68H5V231.86h445.65m0-5H5c-2.76 0-5 2.24-5 5v263.68c0 2.76 2.24 5 5 5h445.65c2.76 0 5-2.24 5-5V231.86c0-2.76-2.24-5-5-5Z"  />
	<path d="m227.57 350.03-91.1 104.48h182.2l-91.1-104.48z" style="fill: var(--field-of-view)"/>
	<path d="M92 365.56h86.96v86.96H92z" style="fill: var(--left-box)" />
  <path d="M277.87 365.56h86.96v86.96h-86.96z" style="fill: var(--right-box)" />
	<path d="M5 454.54h445.65" stroke="currentColor" stroke-width="5"  />
	<path d="M244.85 298.41v35.81c0 1.58-.65 3.02-1.69 4.06a5.738 5.738 0 0 1-4.06 1.69h-23.05c-1.58 0-3.02-.65-4.06-1.69l-.07-.07c-1-1.04-1.62-2.45-1.62-3.99v-35.81c0-1.58.65-3.02 1.69-4.06a5.697 5.697 0 0 1 4.06-1.69h23.05a5.774 5.774 0 0 1 5.75 5.75Zm-23.83 50.69h13.11c.43 0 .81.24 1 .59l6.75 10.21c.35.53.2 1.24-.32 1.59-.19.13-.42.19-.63.19h-26.71a1.15 1.15 0 0 1-.91-1.85l6.75-10.21c.22-.33.59-.51.96-.52Zm14.26-6.91v4.7c0 .63-.52 1.15-1.15 1.15h-13.11c-.63 0-1.15-.52-1.15-1.15v-4.7c0-.63.52-1.15 1.15-1.15h13.11c.63 0 1.15.52 1.15 1.15Zm2.49-32.14c0 2.81-1.14 5.36-2.99 7.21-1.32 1.33-3 2.29-4.88 2.73l.14.14c1.35 1.35 2.18 3.2 2.18 5.25s-.83 3.9-2.17 5.24c-1.35 1.35-3.2 2.18-5.25 2.18s-3.9-.83-5.24-2.17c-1.35-1.35-2.18-3.2-2.18-5.25s.83-3.9 2.17-5.24c.68-.68 1.48-1.22 2.36-1.6-.56-.37-1.07-.8-1.55-1.27-1.84-1.85-2.98-4.4-2.98-7.21s1.14-5.36 2.99-7.21c1.85-1.85 4.39-2.99 7.2-2.99s5.36 1.14 7.21 2.99a10.2 10.2 0 0 1 2.98 7.21Zm-4.61 5.59c1.43-1.43 2.31-3.4 2.31-5.59s-.88-4.16-2.31-5.58c-1.43-1.43-3.4-2.31-5.59-2.31s-4.16.88-5.58 2.31c-1.43 1.43-2.31 3.4-2.31 5.59s.88 4.16 2.31 5.58c1.43 1.43 3.4 2.31 5.59 2.31s4.16-.88 5.59-2.31Zm-4.74 13.35c.92-.92 1.5-2.21 1.5-3.62s-.57-2.7-1.5-3.62-2.21-1.5-3.62-1.5-2.7.57-3.62 1.5-1.5 2.21-1.5 3.62.57 2.7 1.5 3.62 2.21 1.5 3.62 1.5 2.7-.57 3.62-1.5Z" />
	<path d="M347.57 409.04h58.46M387.5 390.51l18.53 18.53M387.5 427.56l18.53-18.52M104.75 409.04H46.29M64.81 427.56l-18.52-18.52M64.81 390.51l-18.52 18.53" stroke="currentColor"/>

	<path d="M1287.61 231.86v263.68H841.96V231.86h445.65m0-5H841.96c-2.76 0-5 2.24-5 5v263.68c0 2.76 2.24 5 5 5h445.65c2.76 0 5-2.24 5-5V231.86c0-2.76-2.24-5-5-5Z" />
  <path d="m1063.94 350.21-91.1 104.49h182.2l-91.1-104.49z" style="fill: var(--field-of-view)" />
	<path d="M928.37 365.74h86.96v86.96h-86.96z" style="fill: var(--left-box)" />
	<path d="M1114.24 365.74h86.96v86.96h-86.96z" style="fill: var(--right-box)" />
  <path d="M841.96 454.54h445.65" stroke="currentColor" stroke-width="5"  />
	<path d="M1081.21 298.59v35.81c0 1.58-.65 3.02-1.69 4.06a5.738 5.738 0 0 1-4.06 1.69h-23.05c-1.58 0-3.02-.65-4.06-1.69l-.07-.07c-1-1.04-1.62-2.45-1.62-3.99v-35.81c0-1.58.65-3.02 1.69-4.06a5.697 5.697 0 0 1 4.06-1.69h23.05a5.774 5.774 0 0 1 5.75 5.75Zm-23.83 50.69h13.11c.43 0 .81.24 1 .59l6.75 10.21c.35.53.2 1.24-.32 1.59-.19.13-.42.19-.63.19h-26.71a1.15 1.15 0 0 1-.91-1.85l6.75-10.21c.22-.33.59-.51.96-.52Zm14.26-6.91v4.7c0 .63-.52 1.15-1.15 1.15h-13.11c-.63 0-1.15-.52-1.15-1.15v-4.7c0-.63.52-1.15 1.15-1.15h13.11c.63 0 1.15.52 1.15 1.15Zm2.49-32.14c0 2.81-1.14 5.36-2.99 7.21-1.32 1.33-3 2.29-4.88 2.73l.14.14c1.35 1.35 2.18 3.2 2.18 5.25s-.83 3.9-2.17 5.24c-1.35 1.35-3.2 2.18-5.25 2.18s-3.9-.83-5.24-2.17c-1.35-1.35-2.18-3.2-2.18-5.25s.83-3.9 2.17-5.24c.68-.68 1.48-1.22 2.36-1.6-.56-.37-1.07-.8-1.55-1.27-1.84-1.85-2.98-4.4-2.98-7.21s1.14-5.36 2.99-7.21c1.85-1.85 4.39-2.99 7.2-2.99s5.36 1.14 7.21 2.99a10.2 10.2 0 0 1 2.98 7.21Zm-4.61 5.59c1.43-1.43 2.31-3.4 2.31-5.59s-.88-4.16-2.31-5.58c-1.43-1.43-3.4-2.31-5.59-2.31s-4.16.88-5.58 2.31c-1.43 1.43-2.31 3.4-2.31 5.59s.88 4.16 2.31 5.58c1.43 1.43 3.4 2.31 5.59 2.31s4.16-.88 5.59-2.31Zm-4.74 13.35c.92-.92 1.5-2.21 1.5-3.62s-.57-2.7-1.5-3.62-2.21-1.5-3.62-1.5-2.7.57-3.62 1.5-1.5 2.21-1.5 3.62.57 2.7 1.5 3.62 2.21 1.5 3.62 1.5 2.7-.57 3.62-1.5Z" />
	<path d="M1063.94 373.23v58.45M1082.46 413.16l-18.52 18.52M1045.41 413.16l18.53 18.52" stroke="currentColor"/>
	</symbol>

	<symbol id="full-view" viewBox="0 0 1292.61 720.96" preserveAspectRatio="xMidYMid">
		<path d="M470.95 124.25 390.2 205M416.39 205H390.2M390.2 178.8V205M826.01 124.25 906.76 205M906.76 178.8V205M880.56 205h26.2M390.2 515.96l80.75 80.74M470.95 570.51v26.19M444.75 596.7h26.2M906.76 515.96l-80.75 80.74M852.21 596.7h-26.2M826.01 570.51v26.19" stroke="currentColor" stroke-width="5" stroke-linecap="round" />
    <use href="#scene"/>
  </symbol>

	<symbol id="start-view" width="4200" height="720.96" viewBox="446 -256 1292.61 720.96" preserveAspectRatio="xMidYMid slice">
    <use href="#scene"/>
  </symbol>

	<symbol id="end-view" width="4200" height="720.96" viewBox="446 256 1292.61 720.96" preserveAspectRatio="xMidYMid slice">
    <use href="#scene"/>
  </symbol>

	<symbol id="move-view" width="1292.61" height="1800" viewBox="-420 220 1292.61 720.96" preserveAspectRatio="xMidYMid slice">
    <use href="#scene"/>
  </symbol>

	<symbol id="zoom-view" width="1292.61" height="1800" viewBox="420 220 1292.61 720.96" preserveAspectRatio="xMidYMid slice">
    <use href="#scene"/>
  </symbol>
</svg>
