<svg xmlns="http://www.w3.org/2000/svg" viewBox="0 0 349.56 247.48" fill="currentColor"><path d="M125.1 151.41c-1.9-4.25-4.55-7.42-7.95-9.52-3.4-2.1-7.75-2.6-13.05-1.5-2.3.5-4.6 1.7-6.9 3.6-2.3 1.9-4.6 4.28-6.9 7.12-2.3 2.85-4.55 6.13-6.75 9.83s-4.35 7.65-6.45 11.85c-.1-4-.38-7.8-.83-11.4-.45-3.6-1.1-6.83-1.95-9.67-.85-2.85-1.93-5.25-3.23-7.2-1.3-1.95-2.85-3.32-4.65-4.12-4.6-1.8-9.05-1.67-13.35.38-4.3 2.05-8.4 5.33-12.3 9.83-3.9 4.5-7.53 9.88-10.88 16.12-3.35 6.25-6.43 12.62-9.22 19.12 1.1-7.5 2.42-15 3.97-22.5 1.55-7.5 3.47-14.95 5.78-22.35H0v105h29.7c2.9-20.2 6.15-37.9 9.75-53.1 1.5-6.5 3.17-12.75 5.02-18.75 1.85-6 3.82-11.2 5.92-15.6s4.32-7.67 6.68-9.82c2.35-2.15 4.82-2.57 7.42-1.28 2.2 1 3.55 3.3 4.05 6.9.5 3.6.4 8.1-.3 13.5s-1.83 11.43-3.38 18.07c-1.55 6.65-3.33 13.48-5.33 20.48s-4.08 13.93-6.22 20.77c-2.15 6.85-4.12 13.12-5.93 18.83h25.05c.8-5.2 1.75-11.17 2.85-17.92 1.1-6.75 2.33-13.67 3.68-20.78 1.35-7.1 2.85-14.12 4.5-21.07 1.65-6.95 3.45-13.2 5.4-18.75 1.95-5.55 4.05-10.15 6.3-13.8 2.25-3.65 4.73-5.82 7.43-6.52 2.5-.6 4.25.35 5.25 2.85s1.47 6 1.42 10.5c-.05 4.5-.52 9.75-1.42 15.75s-2 12.15-3.3 18.45c-3.1 14.9-7.45 32-13.05 51.3h30.15c.3-1.6.87-4.45 1.73-8.55.85-4.1 1.73-8.95 2.62-14.55.9-5.6 1.73-11.67 2.48-18.23.75-6.55 1.17-13.05 1.27-19.5.1-6.45-.18-12.62-.83-18.52-.65-5.9-1.93-10.97-3.82-15.23ZM205.72 189.73c-1.95-4.1-4.55-7.67-7.8-10.72-3.25-3.05-7.03-5.45-11.32-7.2-4.3-1.75-9.1-2.62-14.4-2.62-5 0-9.58.93-13.72 2.78-4.15 1.85-7.78 4.33-10.88 7.42-3.1 3.1-5.62 6.67-7.58 10.72s-3.23 8.35-3.83 12.9c-.6 4.55-.45 9.2.45 13.95s2.65 9.33 5.25 13.72c2.2 3.8 4.95 6.93 8.25 9.38 3.3 2.45 6.87 4.3 10.73 5.55 3.85 1.25 7.85 1.85 12 1.8 4.15-.05 8.15-.7 12-1.95 3.85-1.25 7.4-3.1 10.65-5.55 3.25-2.45 5.97-5.52 8.17-9.22 2.6-4.5 4.37-9.15 5.33-13.95.95-4.8 1.12-9.47.52-14.02-.6-4.55-1.88-8.87-3.82-12.98Zm-10.28 20.7c-1.7 3.7-4.4 6.78-8.1 9.22-3.7 2.45-8.55 3.68-14.55 3.68s-10.88-1.2-14.62-3.6c-3.75-2.4-6.45-5.42-8.1-9.08-1.65-3.65-2.35-7.6-2.1-11.85s1.37-8.2 3.38-11.85c2-3.65 4.77-6.7 8.32-9.15 3.55-2.45 7.77-3.67 12.68-3.67 5.1-.1 9.47 1.05 13.12 3.45 3.65 2.4 6.5 5.43 8.55 9.07 2.05 3.65 3.22 7.6 3.52 11.85.3 4.25-.4 8.23-2.1 11.92ZM259.8 170.98h-25.2c-.9 1.7-2.05 4.1-3.45 7.2-1.4 3.1-2.9 6.6-4.5 10.5-1.6 3.9-3.15 8.05-4.65 12.45-1.5 4.4-2.75 8.77-3.75 13.12s-1.65 8.53-1.95 12.52c-.3 4-.05 7.55.75 10.65.8 3.1 2.25 5.55 4.35 7.35 2.1 1.8 5.05 2.7 8.85 2.7s7.07-1.45 10.12-4.35c3.05-2.9 5.8-6.57 8.25-11.03 2.45-4.45 4.6-9.27 6.45-14.47 1.85-5.2 3.42-10.15 4.72-14.85v43.2h14.85l4.35-139.79-19.2 1.5v63.29Zm0 16.95c-1.3 6.4-3 12.85-5.1 19.35-2.1 6.5-4.4 12.35-6.9 17.55-2.5 5.2-5.1 9.4-7.8 12.6-2.7 3.2-5.3 4.7-7.8 4.5-1.7-.1-2.55-1.67-2.55-4.72s.62-6.77 1.88-11.18c1.25-4.4 3-9.15 5.25-14.25s4.82-9.85 7.72-14.25c2.9-4.8 5.7-9 8.4-12.6 2.7-3.6 5-6.5 6.9-8.7v11.7ZM339.65 121.94c-2.52.05-5.38.24-8.58.58-3.2.34-6.6.89-10.22 1.67a76.14 76.14 0 0 0-10.68 3.11c-3.5 1.3-6.84 2.97-10.01 4.99-3.17 2.03-5.89 4.44-8.16 7.24-2.27 2.8-3.97 6.08-5.09 9.84-1.12 3.76-1.43 8.06-.92 12.88.34 3.18 1.29 6.01 2.86 8.47 1.57 2.46 3.5 4.61 5.8 6.44a35.89 35.89 0 0 0 7.61 4.63c2.77 1.25 5.54 2.32 8.28 3.18-2.8 2.03-5.62 4.34-8.45 6.95a62.235 62.235 0 0 0-7.74 8.61 49.68 49.68 0 0 0-5.84 10.21 33.89 33.89 0 0 0-2.69 11.58c-.39 5.11.06 9.31 1.35 12.59 1.29 3.28 3.15 5.81 5.59 7.6 2.44 1.78 5.28 2.99 8.54 3.62 3.25.63 6.67.84 10.26.65 3.59-.19 7.19-.68 10.81-1.45 3.62-.77 6.97-1.64 10.05-2.61 3.08-.97 5.77-1.86 8.07-2.68 2.3-.82 3.92-1.42 4.88-1.81v-34.16c-10.71 6.66-20.21 11.92-28.51 15.78a142.66 142.66 0 0 1-10.34 4.34c-3.36 1.25-6.32 2.05-8.87 2.39-2.55.34-4.57.1-6.05-.72-1.49-.82-2.12-2.44-1.89-4.85.39-4.73 1.74-8.93 4.04-12.59 2.3-3.67 5.26-6.83 8.87-9.48 3.62-2.66 7.74-4.87 12.36-6.66 4.63-1.79 9.46-3.11 14.51-3.98v-13.75c-4.77.96-9.42 1.52-13.96 1.66-4.54.15-8.63-.22-12.28-1.09-3.64-.87-6.69-2.37-9.12-4.49-2.44-2.12-3.91-4.92-4.42-8.4-.34-2.12.1-3.86 1.3-5.21s2.93-2.39 5.17-3.11c2.24-.72 4.88-1.18 7.9-1.38 3.03-.19 6.19-.24 9.5-.14 3.31.1 6.63.34 9.97.72 3.33.38 6.46.8 9.38 1.23 2.91.43 5.47.87 7.65 1.3 2.19.43 3.78.75 4.79.94v-34.6c-1.29-.1-3.2-.12-5.72-.07ZM145.63 114.25c-1.63 3.22-2.61 6.55-2.95 9.99-.34 3.44-.04 6.9.91 10.39.95 3.48 2.55 6.7 4.82 9.65 2.04 2.8 4.35 5.01 6.92 6.64 2.57 1.63 5.24 2.88 8 3.75 2.76.87 5.52 1.42 8.29 1.65 2.76.23 5.39.26 7.89.11 2.5-.15 4.77-.42 6.81-.79 2.04-.38 3.75-.68 5.11-.91 0-3.48.04-6.7.11-9.65 0-2.5.02-4.88.06-7.15.04-2.27.06-3.71.06-4.31-1.82.98-3.82 1.82-6.02 2.5-1.89.61-4.09 1.06-6.58 1.36-2.5.3-5.18.19-8.06-.34-4.39-.83-7.68-2.38-9.87-4.65-2.2-2.27-3.56-4.84-4.09-7.72 7.34-.68 13.52-1.83 18.56-3.46 5.03-1.63 8.97-3.46 11.8-5.5 2.84-2.04 4.67-4.14 5.5-6.3.83-2.16.75-4.12-.23-5.9-.98-1.78-2.84-3.23-5.56-4.37-2.72-1.13-6.17-1.7-10.33-1.7-5.3 0-9.99.74-14.07 2.21-4.09 1.48-7.55 3.46-10.38 5.96-2.84 2.5-5.07 5.35-6.7 8.57Zm11.01 1.08c.57-2.27 1.4-4.37 2.5-6.3 1.1-1.93 2.44-3.63 4.03-5.11 1.59-1.48 3.33-2.51 5.22-3.12 1.21-.38 2.48-.49 3.8-.34 1.32.15 2.51.53 3.58 1.14a6.59 6.59 0 0 1 2.5 2.55c.6 1.1.83 2.4.68 3.92-.15 1.82-1.04 3.52-2.67 5.11-1.63 1.59-3.59 3.01-5.9 4.26a40.086 40.086 0 0 1-7.32 3.06c-2.57.79-4.88 1.27-6.92 1.42-.23-2.12-.06-4.31.51-6.58Z" class="cls-1"/><path d="M225.3 106.02c2.16-2.65 4.44-3.97 6.87-3.97 1.13 0 1.83.78 2.1 2.33.26 1.55.24 3.57-.06 6.07-.3 2.5-.83 5.33-1.59 8.51-.76 3.18-1.63 6.43-2.61 9.76-2.35 7.87-5.33 16.76-8.97 26.67h21.79c.15-.91.47-2.42.97-4.54.49-2.12.98-4.61 1.48-7.49.49-2.87.96-6 1.42-9.36.45-3.37.74-6.75.85-10.16.11-3.4 0-6.7-.34-9.87-.34-3.18-1.04-5.98-2.1-8.4s-2.52-4.37-4.37-5.85c-1.85-1.48-4.22-2.21-7.09-2.21-2.72 0-5.18.93-7.38 2.78-2.2 1.85-4.18 4.22-5.96 7.09-1.78 2.88-3.35 6.07-4.71 9.59a124.65 124.65 0 0 0-3.52 10.38l1.59-28.71h-14.41v56.75h11.24l.68-12.14c.83-4.39 1.95-9 3.35-13.85 1.4-4.84 3.01-9.29 4.82-13.34 1.82-4.05 3.8-7.39 5.96-10.04ZM155.07 78.64c.9-7.86 1.41-15.66 1.53-23.4.12-7.74-.21-15.15-.99-22.23s-2.31-13.17-4.59-18.27-5.46-8.91-9.54-11.43c-4.08-2.52-9.3-3.12-15.66-1.8-2.76.6-5.52 2.04-8.28 4.32-2.76 2.28-5.52 5.13-8.28 8.55-2.76 3.42-5.46 7.35-8.1 11.79-2.64 4.44-5.22 9.18-7.74 14.22-.12-4.8-.45-9.36-.99-13.68s-1.32-8.19-2.34-11.61c-1.02-3.42-2.31-6.3-3.87-8.64-1.56-2.34-3.42-3.99-5.58-4.95-5.52-2.16-10.86-2.01-16.02.45S54.54 8.35 49.86 13.75 40.83 25.6 36.81 33.1c-4.02 7.5-7.71 15.15-11.07 22.95 1.32-9 2.91-18 4.77-27 1.86-9 4.17-17.94 6.93-26.82H.9v126h35.64c3.48-24.24 7.38-45.48 11.7-63.72 1.8-7.8 3.81-15.3 6.03-22.5 2.22-7.2 4.59-13.44 7.11-18.72 2.52-5.28 5.19-9.21 8.01-11.79 2.82-2.58 5.79-3.09 8.91-1.53 2.64 1.2 4.26 3.96 4.86 8.28.6 4.32.48 9.72-.36 16.2-.84 6.48-2.19 13.71-4.05 21.69a515.27 515.27 0 0 1-6.39 24.57c-2.4 8.4-4.89 16.71-7.47 24.93-2.58 8.22-4.95 15.75-7.11 22.59h30.06c.96-6.24 2.1-13.41 3.42-21.51 1.32-8.1 2.79-16.41 4.41-24.93s3.42-16.95 5.4-25.29c1.98-8.34 4.14-15.84 6.48-22.5s4.86-12.18 7.56-16.56c2.7-4.38 5.67-6.99 8.91-7.83 3-.72 5.1.42 6.3 3.42 1.2 3 1.77 7.2 1.71 12.6-.06 5.4-.63 11.7-1.71 18.9-1.08 7.2-2.4 14.58-3.96 22.14-3.72 17.88-8.94 38.4-15.66 61.56h22.11V83.88h21.63l.62-5.24ZM188.64 0l-22.86 1.8v82.08h19.44L188.64 0zM204.3 29.97c2.76 2.7 6.03 5.46 9.81 8.28 3.78 2.82 7.74 5.64 11.88 8.46 4.14 2.82 7.98 5.58 11.52 8.28 3.54 2.7 6.51 5.31 8.91 7.83 2.4 2.52 3.72 4.86 3.96 7.02.12 1.44-.48 2.34-1.8 2.7-1.32.36-3.15.33-5.49-.09-2.34-.42-4.98-1.11-7.92-2.07-2.94-.96-5.97-2.04-9.09-3.24-7.32-2.88-15.66-6.6-26.23-11.16v27.9h59.83c3.43 0 5.93-7.32 4.74-12.6-.48-2.16-1.89-4.5-4.23-7.02s-5.16-5.1-8.46-7.74c-3.3-2.64-6.87-5.28-10.71-7.92-3.84-2.64-7.5-5.19-10.98-7.65-3.48-2.46-6.57-4.77-9.27-6.93-2.7-2.16-4.53-4.02-5.49-5.58-2.64-2.76-4.02-4.77-4.14-6.03-.12-1.26.6-1.95 2.16-2.07 1.56-.12 3.81.24 6.75 1.08 2.94.84 6.15 1.86 9.63 3.06 8.16 3 18.24 7.26 30.24 12.78V4.5c-1.68-.6-4.56-1.29-8.64-2.07-4.08-.78-8.64-1.35-13.68-1.71S227.43.33 222.21.63c-5.22.3-9.84 1.2-13.86 2.7-4.02 1.5-6.99 3.75-8.91 6.75s-2.1 7.02-.54 12.06c.84 2.52 2.64 5.13 5.4 7.83ZM339.92 28.98c4.5-3.24 7.41-6.57 8.73-9.99 1.32-3.42 1.2-6.54-.36-9.36-1.56-2.82-4.5-5.13-8.82-6.93C335.15.9 329.69 0 323.09 0c-8.4 0-15.84 1.17-22.32 3.51S288.8 9 284.3 12.96s-8.04 8.49-10.62 13.59-4.14 10.38-4.68 15.84c-.54 5.46-.06 10.95 1.44 16.47s4.05 10.62 7.65 15.3c3.24 4.44 6.9 7.95 10.98 10.53 4.08 2.58 8.31 4.56 12.69 5.94 4.38 1.38 8.76 2.25 13.14 2.61 4.38.36 8.55.42 12.51.18 3.96-.24 7.56-.66 10.8-1.26s5.94-1.08 8.1-1.44c0-5.52.06-10.62.18-15.3 0-3.96.03-7.74.09-11.34.06-3.6.09-5.88.09-6.84-2.88 1.56-6.06 2.88-9.54 3.96-3 .96-6.48 1.68-10.44 2.16-3.96.48-8.22.3-12.78-.54-6.96-1.32-12.18-3.78-15.66-7.38-3.48-3.6-5.64-7.68-6.48-12.24 11.64-1.08 21.45-2.91 29.43-5.49s14.22-5.49 18.72-8.73Zm-38.61 7.47c-4.08 1.26-7.74 2.01-10.98 2.25-.36-3.36-.09-6.84.81-10.44.9-3.6 2.22-6.93 3.96-9.99 1.74-3.06 3.87-5.76 6.39-8.1 2.52-2.34 5.28-3.99 8.28-4.95 1.92-.6 3.93-.78 6.03-.54s3.99.84 5.67 1.8c1.68.96 3 2.31 3.96 4.05.96 1.74 1.32 3.81 1.08 6.21-.24 2.88-1.65 5.58-4.23 8.1-2.58 2.52-5.7 4.77-9.36 6.75-3.66 1.98-7.53 3.6-11.61 4.86Z"/></svg>